<?xml version="1.0" encoding="UTF-8"?>
<svg id="Banner_Inicio" data-name="Banner Inicio" xmlns="http://www.w3.org/2000/svg" xmlns:xlink="http://www.w3.org/1999/xlink" viewBox="0 0 682.51 511.88">
  <defs>
    <style>
      .cls-1 {
        fill: none;
      }

      .cls-2 {
        fill: #8f032a;
      }

      .cls-3 {
        fill: #10322c;
      }

      .cls-4 {
        fill: #214f4c;
      }

      .cls-5 {
        fill: #f6efe2;
      }

      .cls-6 {
        fill: #235d41;
      }

      .cls-7 {
        fill: #12342f;
      }

      .cls-8 {
        fill: #a0b0a8;
      }

      .cls-9 {
        fill: #93a046;
      }

      .cls-10 {
        fill: #578688;
      }

      .cls-11 {
        fill: #3a5e47;
      }

      .cls-12 {
        fill: #96a25f;
      }

      .cls-13 {
        fill: #416b69;
      }

      .cls-14 {
        fill: #1a5742;
      }

      .cls-15 {
        fill: #1a5743;
      }

      .cls-16 {
        fill: #467372;
      }

      .cls-17 {
        fill: #582c19;
      }

      .cls-18 {
        fill: url(#Degradado_sin_nombre_173);
      }

      .cls-19 {
        opacity: .08;
      }

      .cls-20 {
        fill: #3e7341;
      }

      .cls-21 {
        fill: #12372f;
      }

      .cls-22 {
        fill: #839876;
      }

      .cls-23 {
        fill: #4a6c51;
      }

      .cls-24 {
        fill: #649098;
      }

      .cls-25 {
        fill: url(#Degradado_sin_nombre_173-2);
      }

      .cls-26 {
        fill: url(#Degradado_sin_nombre_173-3);
      }

      .cls-27 {
        fill: #18453d;
      }

      .cls-28 {
        fill: #6d9e8b;
      }

      .cls-29 {
        fill: #13322c;
      }

      .cls-30 {
        fill: #e57b3c;
      }

      .cls-31 {
        clip-path: url(#clippath);
      }
    </style>
    <clipPath id="clippath">
      <rect class="cls-1" x="-1862.9" y="-886.47" width="1592.63" height="1109.67"/>
    </clipPath>
    <linearGradient id="Degradado_sin_nombre_173" data-name="Degradado sin nombre 173" x1="-1523.34" y1="709.62" x2="-1371.01" y2="709.62" gradientTransform="translate(-1216.93 641.59) rotate(144.52) scale(1 -1)" gradientUnits="userSpaceOnUse">
      <stop offset="0" stop-color="#36499b"/>
      <stop offset=".21" stop-color="#9fa81a"/>
      <stop offset=".57" stop-color="#0b5a2f"/>
      <stop offset=".93" stop-color="#e57b3c"/>
    </linearGradient>
    <linearGradient id="Degradado_sin_nombre_173-2" data-name="Degradado sin nombre 173" x1="-1507.59" y1="653.3" x2="-1408.17" y2="653.3" xlink:href="#Degradado_sin_nombre_173"/>
    <linearGradient id="Degradado_sin_nombre_173-3" data-name="Degradado sin nombre 173" x1="-1415.14" y1="559.08" x2="-1354.96" y2="559.08" xlink:href="#Degradado_sin_nombre_173"/>
  </defs>
  <g class="cls-31">
    <g class="cls-19">
      <path class="cls-17" d="M182.79,123.04c-14.85-24.22-32.45-47.12-49.46-69.27C115.87,31.06,97.81,7.56,82.77-17.31c-20.82-34.43-36.38-72.24-51.44-108.81C16.94-161.08,2.06-197.23-5.47-234.95c-6.29-31.49-7.44-64.24-8.54-95.91-.67-19.09-1.36-38.82-3.16-58.14-4.82-51.5-20.4-101.94-43.88-142.01-26.89-45.9-63.86-78.17-106.91-93.33-19.91-7.01-41.35-10.5-62.08-13.88-31.38-5.11-63.82-10.4-90.29-28.09-42.62-28.49-60.15-83.5-69.63-122.4-1.97-8.09-3.83-16.26-5.69-24.45-8.88-39.07-18.05-79.47-40.69-112.92-10.36-15.31-23.52-29.11-36.25-42.45-5.4-5.66-10.73-11.25-15.82-16.89-1.36-.03-2.73-.05-4.09-.08,5.76,6.5,11.77,12.81,17.72,19.06,12.64,13.25,25.72,26.96,35.93,42.06,22.32,32.98,31.43,73.1,40.24,111.9,1.86,8.2,3.72,16.39,5.7,24.5,9.6,39.39,27.39,95.12,70.89,124.19,27.02,18.06,59.79,23.4,91.48,28.56,20.6,3.36,41.91,6.83,61.57,13.75,96.84,34.11,140.35,142.61,148.79,232.78,1.8,19.23,2.49,38.92,3.16,57.96,1.11,31.79,2.26,64.66,8.6,96.39C-.84-196.35,14.1-160.06,28.55-124.97c15.09,36.67,30.7,74.59,51.64,109.22,15.13,25.02,33.24,48.58,50.74,71.37,16.97,22.09,34.52,44.92,49.29,69.01,20.62,33.61,52.2,99.46,32.04,162.74l2.88.91c20.52-64.43-11.46-131.18-32.35-165.23Z"/>
      <g>
        <path class="cls-17" d="M329.16,294.94c-4.93-29.07-15.02-57.31-24.78-84.62-10.52-29.44-21.4-59.89-25.68-91.16-.77-5.66-1.36-11.51-1.92-17.17-1.8-17.98-3.66-36.57-11.86-53.04-12.8-25.71-37.94-40.87-62.25-55.52-16.81-10.14-34.2-20.62-47.54-34.54-48.52-50.63-35.4-133.22-21.31-190.93l1.23-5.03c15.64-63.94,33.37-136.41.15-194.45-11.07-19.33-27.07-35.33-42.55-50.8-14.52-14.51-29.53-29.52-40.23-47.11-12.39-20.37-19.51-44.76-26.41-68.35-10.89-37.3-22.16-75.86-54.67-97.32-36.35-24-81.34-15.12-124.85-6.54-40.41,7.97-82.2,16.22-117.14-1.68-51.9-26.57-62.4-95.12-68.16-157.28-5.1-54.97-18.13-95.78-38.86-122.1-1.99-.06-3.99-.11-5.98-.17.21.24.41.5.61.74,1.36.18,3.48-.4,5.02-.4-1.54,0-3.66.58-5.02.4,21.23,25.47,34.55,66.24,39.72,121.95,5.88,63.36,16.67,133.27,70.61,160.89,36.34,18.61,78.91,10.21,120.08,2.09,44.57-8.8,86.68-17.1,121.48,5.87C-.02-670.79,10.51-634.72,21.67-596.52c6.97,23.87,14.18,48.55,26.88,69.43,10.99,18.06,26.19,33.26,40.9,47.96,15.27,15.26,31.05,31.04,41.82,49.85,32.33,56.47,14.82,128.01-.62,191.13l-1.23,5.03c-14.34,58.75-27.62,142.89,22.44,195.13,13.76,14.36,31.4,24.99,48.47,35.29,24.85,14.98,48.32,29.13,60.53,53.67,7.83,15.73,9.65,33.9,11.4,51.48.57,5.7,1.16,11.59,1.94,17.33,4.34,31.75,15.31,62.42,25.91,92.07,9.7,27.13,19.72,55.18,24.58,83.85,10.4,61.38-13.12,133.25-70.51,147.26l1.07,4.4c59.94-14.64,84.64-88.99,73.89-152.41Z"/>
        <path class="cls-17" d="M114.48,94.5c-5.7-5.19-12.06-10.17-19.87-11.4-6.52-1.03-13.26.95-18.98,5.55-7.26,5.84-12.12,15.21-12.69,24.47-.99,16.14,7.39,30.92,15.71,43.25,3.57,5.29,7.39,10.61,11.09,15.77,15.28,21.3,31.08,43.32,33.85,68.93,1.94,17.87-7.61,38.74-22.69,49.65-9.63,6.96-20.07,8.84-29.69,5.4,31.39-54.23,18.82-130.72-28.66-171.74-12.52-10.82-27.29-19.64-41.58-28.16-26.1-15.58-50.75-30.29-62.96-56.19-15.29-32.43-4.51-67.06,6.9-103.73,8.19-26.33,16.67-53.55,15.05-80.51-2.38-39.45-25.84-72.85-48.52-105.15-20.88-29.73-42.47-60.46-47.47-95.76-3.38-23.88,1.15-48.33,5.54-71.97,2.42-13.05,4.92-26.55,6.11-39.93,3.49-39.22-9.39-84.64-46.04-97.71-5.87-2.09-14.34-3.75-21.4.24-12.69,7.18-10.96,26.33-10.39,32.63.69,7.62,1.49,15.24,2.3,22.87,2.87,27.18,5.83,55.29,3.36,82.78-2.08,23.15-10.51,65.87-43.53,91.85-25.03,19.69-58.85,25.07-88.64,27.74-15.16,1.36-31.23,2.3-46.27-2.3-17.08-5.22-31.45-18.69-39.41-36.95-7.96-18.26-8.05-37.95-.24-54.02,14.87-30.62,49.24-44.28,82.48-57.48l4.84-1.93c48.04-19.18,73.63-43.09,78.23-73.1,6.44-41.99-32.21-76.29-67.27-92.9-9.93-4.7-20.39-8.93-30.52-13.01-26.74-10.79-54.39-21.94-73.98-42.88-32.68-34.91-34.06-83.36-35.52-134.65-1.25-43.85-2.54-89.19-25.09-125.72-8.64-13.99-20.14-26.08-31.26-37.78-5.21-5.48-10.5-11.05-15.52-16.84-2.01-.04-4.03-.07-6.04-.11,5.84,6.98,12.11,13.58,18.28,20.07,10.96,11.53,22.3,23.45,30.69,37.04,21.92,35.5,23.19,80.23,24.42,123.48,1.42,49.88,2.88,101.45,36.73,137.62,20.28,21.66,48.4,33.01,75.59,43.98,10.06,4.06,20.46,8.26,30.27,12.9,33.65,15.95,70.79,48.59,64.73,88.13-4.34,28.29-29.02,51.05-75.44,69.58l-4.84,1.92c-32.45,12.89-69.24,27.51-84.88,59.71-8.38,17.26-8.33,38.33.16,57.8,8.49,19.47,23.88,33.86,42.24,39.47,15.82,4.84,32.38,3.87,47.99,2.48,30.45-2.73,65.08-8.27,91.04-28.69,34.36-27.02,43.09-71.12,45.24-95,2.51-27.93-.48-56.26-3.36-83.66-.8-7.6-1.6-15.2-2.29-22.8-1.38-15.17,1.28-24.42,8.11-28.28,5.57-3.15,12.67-1.69,17.65.08,34.37,12.26,46.39,55.57,43.05,93.05-1.17,13.17-3.66,26.56-6.06,39.51-4.45,24-9.05,48.82-5.56,73.43,5.15,36.37,27.06,67.56,48.25,97.72,22.32,31.78,45.41,64.64,47.71,102.82,1.57,26.13-6.77,52.95-14.85,78.89-11.17,35.87-22.71,72.97-6.67,107C-53.28,69.09-26.88,84.85-1.34,100.1c14.12,8.43,28.72,17.14,40.94,27.7,46.55,40.23,58.4,115.7,26.4,168.25l-1.33,2.18,2.32,1.05c4.49,2.04,9.15,3.06,13.86,3.05,7.65,0,15.41-2.67,22.71-7.95,16.58-11.99,26.67-34.11,24.54-53.81-2.9-26.79-19.06-49.31-34.68-71.08-3.68-5.13-7.49-10.43-11.02-15.66-7.9-11.7-15.85-25.65-14.95-40.44.49-8.03,4.71-16.15,11.01-21.22,3.34-2.68,8.71-5.67,15.45-4.61,6.63,1.04,12.34,5.55,17.53,10.27,52.02,47.36,73.21,127.17,51.53,194.1l4.31,1.4c22.21-68.56.5-150.33-52.79-198.84Z"/>
      </g>
    </g>
  </g>
  <g>
    <path class="cls-22" d="M346.45,109.89c-1.34.34-1.78,1.59-1.33,3.77l-11.48,34.38c-6.23,17.58-7.21,40.69,1.36,57.63,2.61,5.15,5.36,4.6,10.34,3.5,13.54-21.43,26.92-43.98,39.33-66.16.1-.18-.11-.55-.42-.96l1.67-1.15c4.27-6.78,8.32-13.69,12.15-20.72l2.29-.23c3.12-4.67,6.05-9.48,8.78-14.42l-.91-1.96c1.58-2.69,2.2-5.72,2.87-9.22,3.01-15.75,2.97-31.89-2.19-47.18-1.88-5.56-4.47-10.35-8.75-14.19-6.47-5.8-14.1.36-19.58,8.74-11.2,17.1-19.58,35.34-26.93,54.41l-5.87,15.23c-.52-.14-.88-.66-1.34-1.49Z"/>
    <path class="cls-3" d="M332.39,95.33c-.72.38-1.42.79-2.04,1.3-.6.5-1.17.99-1.5,1.6-6.33,11.91-10.31,25.01-13.72,38-8.91,38.92-17.78,78.32-22.06,117.93.15-1.5-.53-.47-1.04.91l.18,13.63c1.3,4.76,2.64,6.02,4.04,3.78l1.93-.24,26.83-83.86c2.05,15.94,5.71,31.41,11,46.44l12.58,39.23c4.68,24.7-7.03,42.62-33.21,38.81-1.79,0-2.14,1.04-1.09,2.51-1.06,2.48,4.6,3.95,5.73,1.62,9.93,4.66,21.3,2.01,31.38-.83,14.09-6.23,28.49-10.25,43.21-12.06l9.56,1.08c1.83-.69,1.92-1.45.36-2.65-8.66-4.49-17.48-8.7-26.96-11.27-.22-2.86-3.23-2.72-4.24-.08l-3.32-.37c-4.7,1.65-9.26,3.63-13.69,5.95,1.99-3.42,3.12-6.99,3.4-10.7l-1.39-1.77c3.19-4.78,2.17-15.28-1.65-19.62,1.19-2.9,1.85-7.43-1.28-8.69l-1.37-2.63c2.58-1,.83-8.28-1.91-8.37l.84-2.48c-.84-4.02-2.64-7.5-5.4-10.44l1.42-1.31-3.73-11.58,42.11-75.53-1.02-1.8c.46-2.25-.82-1.19-2.07.23l-39.73,65.69c-2.64.41-4.38.34-6.68.03-7.1-15.69-9.53-32.46-5.3-49.15,3.88-15.32,9.3-29.55,14.29-44.54.33-1-.08-3.14-.38-4.18-1.95-6.63-5.64-16.64-10.11-16.87-1.59-.08-3.31,1.15-3.95,2.31Z"/>
    <path class="cls-24" d="M395.03,193.85l.1.98c-12.44,12.84-24.88,26.23-37.3,40.18-2.68,2.94-5.1,5.94-5.72,9.96l1.91,8.37,1.97,4.42c3.82-.17,7.58-.75,11.28-1.76l-9.82,4.69c-.6,1.1-.86,2.43-.79,3.98,1.19,6.42,1.96,13.14,1.65,19.62.97,5.2,10.17,7.05,15.01,6.89,1.35-.12,2.97-.27,4.24.08,0-.96.8-1.67,1.8-2.18,15.57-7.97,34.05-22.92,32.33-39.71-.49-4.81-3.72-8.38-8.47-8.78,16.1-12.93,27.1-38.53,20.83-57.15-1.1-3.26-5.28-7.47-8.84-5.76-1.87-.36-2.81-.54-2.81-.54-5.21,2.55-13.28,9.41-17.06,13.88l-.32,2.84Z"/>
    <path class="cls-28" d="M398.08,120.18c-3.84,7.05-7.9,13.97-12.17,20.75l.42.88-43.16,77.41,4.38,12.82c1.1,4.37,4.99,5.52,8.43,2.35,13.78-12.71,27.35-25.98,39.06-40.54,5.95-6.06,12.62-12.54,20.18-16.18l-2.33-.33c10.53-16.67,14.82-36.45,12.52-55.75-1.39-11.66-7.67-23.76-14.87-18.83-.85.58-1.79,1.02-2.3.83l-7,11.95c-1.22,2.07-2.05,2.9-3.16,4.65Z"/>
    <path class="cls-14" d="M292.03,255.08c.83.05,1.53.12,1.84-.08.42-.28.25-1.47.32-1.88l3.34-21.05,3.89-22.24,2.84-14.09c.46-2.28.73-4.38,1.22-6.79l3.5-17.13,2.64-13.54,4.72-19.51c3.71-15.34,8.64-29.94,16.06-43.43-.59.19-.87-.26-.72-.92-.7-15.92-13.59-45.69-24.79-44.97-2.92.19-5.12,2.66-6.09,5.56-6.46,19.29-8.24,55.32-8.34,77.22l-.18,40.64-.23,82.22Z"/>
    <path class="cls-5" d="M242.44,321.55l.31,2.8c5.46,6.54,11.61,11.7,18.46,15.49-7.31,12.88-19.58,15.32-32.14,7.64l-2,1.04c16.44,15.96,35.98,29.7,57.5,37.48l.55-.78,9.74,2.44c8.75,1.06,18.23.09,26.85-1.6,9.67-1.9,26.52-6.77,34.76-11.75,1.09-.66,1.7-1.86,2.24-2.96,1.61-1.49.88-2.35-1.16-2.79-37.49,4.26-65.07-24.87-68.52-61.47,1.09-2.98.65-4.7-1.32-5.15l-2.29.38c-6.97,18.53-26.39,25.71-43.07,14.3-2.74.08-2.71,1.72.09,4.91Z"/>
    <path class="cls-20" d="M429,353.39l2.46,2.88c10.71,5.21,20.99,11.23,30.83,18.07-1.22-.77-1.19-.48.1.86-1.6,2.25,5.39,6.03,7.15,3.99,1.68-1.16,3.77-.49,6.28,2.01,3.26.24,4.03-1.83,2.33-6.2-17.72-29.06-43.37-56.81-73.6-72.48.26.92-.25,1.16-.89.97-6.39-1.68-12.63-1.37-19.1-.11-21.75,4.24-37.22,17.8-64.52,13.61-1.01,2.13.16,3.58,3.52,4.33,27.85,7.54,55.54,15.56,83.06,24.08,7.27,3.61,14.73,6.28,22.39,7.99Z"/>
    <path class="cls-18" d="M284.57,386.01c15.81,5.72,31.83,9.29,49.04,9.63,20.97.41,41.33-3.61,60.82-11.48l21.57-8.71,2.76.82c13.11-5.06,27.8-6.96,40.77-.56l2.86-.5c.22-.1.96-.99.54-1.33-10.64-8.61-21.77-15.92-33.93-20.48-14.55-5.29-28.52-1.54-41.73,5.67,0,0-9.3,3.41-27.91,10.22l-.65,2.07c-24.19,11.1-48.4,18.77-74.95,12.9.02.94.56,1.45.81,1.75Z"/>
    <path class="cls-9" d="M150.12,304.37c1.96,3.48,8.51-.21,8.65-3.3l2.07-.75c3.99,1.38,13.14-5.12,15.97-8.27,3.6-4.01,8.03-11.46,10.48-16.22l2.62.11c9.59-7.7,21.95-8.19,33.22-4.27l4.44.41c-.92,2.74,5.99,5.65,7.99,4.25,15.5,8.16,35.24,4.91,50.64-2.54l1.09-2.71c-1.96-1.28-4.41-.99-6.79-1.43-12.99-2.39-22.48-18.52-44.81-24.47-30.45-8.12-59.68,11.34-71.78,40.64-2.76,6.68-6.58,12.52-12.76,16.82-.8.55-1.08,1.3-1.02,1.72Z"/>
    <path class="cls-7" d="M416,375.44c-.35,18.62.78,36.94,5.81,54.99,3.35,12.03,12.05,35.37,19.77,33.98,6.27-1.13,8.18-15,8.44-23.54,1.53-.98,2.05-1.78,1.57-2.4-4.41-15.21-9.21-32.03-9.53-48.06-.02-1.24,20.88,8.67,22.43,10.23,2.4.73,2.98.08,2.35-2.31l1.13-2.06c-1.69-3.76-2.98-7.64-3.86-11.65,5.79.94,11.39,2.75,16.8,5.43,3.89-.78,3.68-1.29,1.32-4.16-2.24-2.73-9.3-7.45-12.68-6.71l-7.15-3.99c-14.89-8.32-31.12-5.93-46.39.24Z"/>
    <path class="cls-2" d="M177.55,299.23c-4.96,2.21-8.74,5.4-11.35,9.6-2.09,2.74-2.54,5.05-1.36,6.93,14.53-1.06,34.71,9.67,46.26,19.36l15.97,13.41c5.08,2.21,9.85,5.19,15.92,5.21,8.62.03,16.58-5.7,19.6-14.45-8.25-4.8-13.84-11.56-20.16-17.74-2.66-6.15-8.37-11.38-14.59-15.17-5.68-3.46-11.64-6.76-18.42-7.13.06-3.35-5.65-3.83-8.32-2.62-1.8-3.93-9.78-2.04-13.67-1.01-.95-3.79-10.35.56-9.89,3.62Z"/>
    <path class="cls-23" d="M469.53,379.2c4.69,2.62,9.07,5.92,13.67,9.84-7.07-2.53-13.09-6.1-21.14-6.62.35,5.97,2.99,10.93,4.76,15.92-.88,1.04-1.32,1.56-1.32,1.56,4.54,13.69,9.67,27.15,15.36,40.38.22,3.49,1.3,5.56,3.25,6.21,1.12-.21,1.79.47,2.47,1.7,7.12,12.87,14.8,24.81,25.76,34.56,1.74,1.55,5.8,4.77,7.69,2.14,2.05-2.85,1.25-8.29.22-12.02-9.57-34.55-23.66-67.58-42.13-97.87l-.86,4.83c-2.76-.48-4.52-2.53-5.67-5.78-.43,1.98-.74,3.17-2.8,3.61l.74,1.53Z"/>
    <path class="cls-15" d="M450.01,440.88c.07-.29.45-.69.83-.77,5.21,13.64,23.08,48.06,30.89,42.42s4.73-25.31,2.39-36.03l-1.42-6.46-2.91-6.23-5.68-14.96-7.28-20.5c-.46,3.15-5.05-2.55-15.87-6.57-3.48-1.29-6.54-3.21-10.79-3.72.84,16.25,3.75,31.28,8.31,46.28.77,2.55,1.61,4.13,1.54,6.55Z"/>
    <path class="cls-6" d="M275.87,297.85c2,1.39,2.6.64,1.35-1.46,4.49-.66,8.67-4.35,12.05-7.37,2.54,1.04,3.39-.42,1.42-2.24,2.64-1.11,3.42-1.95,4.28-4.95,2.03-3.54,2.45-6.66,1.29-9.34-1.53,1-.91-1.88-1.92-3.38-.31-.46-1.63-.64-2.12-.41l-4.93,2.38c-8.98,5.7-19.68,7.45-30.65,8.23-8.62.61-14.71-2.86-21.08-2.99-.3.29-.56.59-.71.95-.94,2.25,22.79,18.75,27.36,20.2,5.29,1.68,8.51,1.23,13.68.37Z"/>
    <path class="cls-21" d="M72.39,356.82c-.75.43-1.8,1.28-2.51,3.26,5.92-1.59,11.31-4.27,17.13-7.46l53.11-29.09c8-4.38,16.13-7.14,24.71-7.77,1.93-4.12,3.45-8.23,7.15-11.55l5.56-4.98c-1.38-1.5-3.8-1.18-7.24.95-2.14.58-3.87,1.89-5.17,3.94l-.8-.89c-27.23,14.29-55.01,28.97-81.17,45.6-3.66,2.32-7.74,5.02-10.77,7.99Z"/>
    <path class="cls-10" d="M72.39,356.82l51.28-29.72,41.46-22.99c6.62-4.01-3.98-4.37-6.26-2.33-.28.25,2.63-.22,1.96-1.47-.63.27-1.99-.23-3.01.8-2.24,2.24-4.88,3.04-7.7,3.25l-67.82,43.21-9.06,7.33c-.7.56-1.03,1.35-.85,1.91Z"/>
    <path class="cls-11" d="M384.26,142.05c.63-.37,1.35-.74,2.07-.23l5.72-9.96c2.28-3.97,4.9-7.61,6.03-11.68l-13.82,21.87Z"/>
    <path class="cls-12" d="M296.25,272.49c-1.55,4.87-2.98,9.74-5.56,14.29,2.09,14.11,10.01,22.9,22.08,29.92l1.53-1.33c.06-.81.4-1.09,1.21-.71,13.3,3.03,28.16-3.26,33.56-16.29,3.66-8.84,3.27-18.8.37-27.78l-11.73-36.29-7.72-25.99c-2.92-9.85-3.28-19.34-3.42-30.34l-8.28,25.25-22.04,69.26Z"/>
    <path class="cls-25" d="M290.69,286.79c-.46.8-.54,1.55-1.42,2.24-.6.51-.45.68.37.54-1.36,2.36-5.71,10.12-3.31,11.76.41.28.88.47,1.38.62.64,1.86-.6,3.61-.43,5.79.62,8.06,2.68,16.38,6.24,23.78l3.24,6.75c2.86,5.94,10.19,14.82,14.99,18.33l9.04,6.61c1.99,1.46,5.24,2.46,7.45,3.29l5.45,2.06,14.78,2.42,6.54-.14c.94-.02,2.87-1.51,3.7.53l15.12-4.94,6.04-2.34,7.43-3.11c5.71-2.39,10.62-5.79,18.6-7.23,2.7-.49,5.28-1.74,8.41-1.01l14.7.66-13.78-6.36c-24.8-11.13-62.85-17.96-91.1-27.38-1.8-.6-3.25-1.21-4.1-2.65l-5.73-1.62c-2.43-.69-4.59-2.86-6.92-4.66l-4.54-3.51c-3.15-2.43-6.31-6.48-7.41-10.39l-2.99-10.62c-.14-.51-1.38-.09-1.74.59Z"/>
    <path class="cls-27" d="M395.03,193.85c-13.03,13.27-26.12,26.38-40.17,39.17-1.19,1.08-3.69,1.34-4.77,1.46-1.01.11-2.14-1.61-2.55-2.44l4.56,12.93c9.23-12.01,19.36-22.95,29.68-34.31l16.74-18.43c-1.74.09-2.58,1.15-3.5,1.63Z"/>
    <path class="cls-4" d="M356.68,264.67c.34-.93,1-2.23,2.33-2.85l37.83-17.69c-.13-.37-.03-.83-.02-.98l-13.79,5.53c-8.76,3.51-17.39,6.43-26.71,7.54-.94-.57-1.87-2.23-2.29-2.88.33,1.44,1.03,2.59,1.37,4.4l1.29,6.93Z"/>
    <path class="cls-13" d="M373.34,291.18c-4-2.66-10.05-2.78-15.01-6.89-.29,6.17-3.15,11.08-6.8,17.03,7.61-4.27,14.5-7.23,21.81-10.14Z"/>
    <path class="cls-30" d="M209.43,299.25c8.4,2.65,15.91,7.16,23.33,12.83l9.68,9.47-1.6-3.86c11.17,8.27,26.83,8.59,37.43-1.22,4.5-4.16,6.44-9.71,9.43-14.51-1.72-5,3.95-9.28,1.93-12.39-3.92,3.12-8.06,5.4-12.42,6.83-.35.37-.93,1.23-1.35,1.46l-1.61-.13c-10.61,4.13-21.45,5.97-32.53,5.51-10.77-2.14-21.41-4.19-31.92-6.15l-.38,2.17Z"/>
    <path class="cls-26" d="M201.11,296.63l8.32,2.62c1.57-1.31,3.31-.18,5.12.1,5.2.81,9.65,2.39,14.61,3.63,16.14,4.05,32.44,2.55,46.71-5.13-.77-1.24-1.68-.9-3.13-.8-11.81.84-19.93-6.21-28.84-13.7l-8.35-7.02c-2.35-1.98-5.63-2.7-7.99-4.25-6.02-1.82-12.63,1.1-17.08,5.21-.32,7.01-3.14,13.03-9.03,17l-.33,2.34Z"/>
    <path class="cls-16" d="M160.84,300.32c-.7.46-1.72.49-2.4,2.07,2.74-.77,5.14-.03,8.04-.01-.33,1.22-1.18,1.23-1.34,1.74l12.41-4.89,6.08-3.01c1.02-.51,2.86-.68,3.81-.61l5.69-3.14-6.4-4.15c-2.56-3.98,2.35-9.51.55-12.49-4.6,4.11-8.31,9.37-11.78,15.05-4.7,3.65-9.76,7.3-14.66,9.44Z"/>
    <path class="cls-30" d="M277.22,296.39c.84.48,2.17.66,3.23-.11l9.19-6.72-.37-.54c-3.7,2.89-7.78,5.55-12.05,7.37Z"/>
    <g>
      <path class="cls-29" d="M187.28,275.83c-3.2,6.63-5.53,12.44,2.14,16.66-1.53.68-2.53,1.2-1.99,3.12l13.67,1.01c6.71-4.17,10.94-10.57,10.84-18.59,4.78-3.8,10.17-4.76,15.61-5.95-3.1-2.03-6.34-2.92-10.31-3.78-10.87-2.36-21.77.21-29.97,7.53Z"/>
      <circle class="cls-8" cx="197.16" cy="279.74" r="2.54"/>
    </g>
  </g>
</svg>