<?xml version="1.0" encoding="utf-8" standalone="yes"?>
<!DOCTYPE svg PUBLIC "-//W3C//DTD SVG 1.1//EN" "http://www.w3.org/Graphics/SVG/1.1/DTD/svg11.dtd">
<svg style="fill:none;stroke:none;fill-rule:evenodd;clip-rule:evenodd;stroke-linecap:round;stroke-linejoin:round;stroke-miterlimit:1.5;" version="1.1" xmlns="http://www.w3.org/2000/svg" xmlns:xlink="http://www.w3.org/1999/xlink" width="842" height="546" viewBox="0 0 842 546"><style class="text-font-style fontImports" data-font-family="Roboto">@import url(https://fonts.googleapis.com/css2?family=Roboto:wght@400;700&amp;amp;display=block);</style><g id="items" style="isolation: isolate"><g id="blend" style="mix-blend-mode: normal"><g id="g-root-cp_1_column-1_1lw4vvf1rw96h8-fill" data-item-order="-398150" transform="translate(18, 113)"><g id="cp_1_column-1_1lw4vvf1rw96h8-fill-merged" stroke="none" fill="#4f91fc" fill-opacity="1"><g><path d="M10 13C10 14.657 11.343 16 13 16C14.657 16 16 14.657 16 13C16 11.343 14.657 10 13 10C11.343 10 10 11.343 10 13"></path></g></g><g id="cp_1_column-1_1lw4vvf1rw96h8-fill-merged" stroke="none" fill="#4f91fc" fill-opacity="1"><g><path d="M10 151C10 152.657 11.343 154 13 154C14.657 154 16 152.657 16 151C16 149.343 14.657 148 13 148C11.343 148 10 149.343 10 151"></path></g></g></g><g id="g-root-cp_1_column-1_1lw4vvf1rw96h8-stroke" data-item-order="-398150" transform="translate(18, 113)"><g id="cp_1_column-1_1lw4vvf1rw96h8-stroke" fill="none" stroke-linecap="round" stroke-linejoin="round" stroke-miterlimit="4" stroke="#2c2c2c" stroke-width="2" stroke-opacity="1"><g><path d="M 10 13C 10 14.656854 11.343146 16 13 16C 14.656854 16 16 14.656854 16 13C 16 11.343146 14.656854 10 13 10C 11.343146 10 10 11.343146 10 13"></path></g></g><g id="cp_1_column-1_1lw4vvf1rw96h8-stroke" fill="none" stroke-linecap="round" stroke-linejoin="round" stroke-miterlimit="4" stroke="#2c2c2c" stroke-width="2" stroke-opacity="1"><g><path d="M 13 16L 13 148"></path></g></g><g id="cp_1_column-1_1lw4vvf1rw96h8-stroke" fill="none" stroke-linecap="round" stroke-linejoin="round" stroke-miterlimit="4" stroke="#2c2c2c" stroke-width="2" stroke-opacity="1"><g><path d="M 10 151C 10 152.656854 11.343146 154 13 154C 14.656854 154 16 152.656854 16 151C 16 149.343146 14.656854 148 13 148C 11.343146 148 10 149.343146 10 151"></path></g></g></g><g id="g-root-cp_3_column-3_1hgbdqz1rw979h-fill" data-item-order="-398134" transform="translate(198, 149)"><g id="cp_3_column-3_1hgbdqz1rw979h-fill-merged" stroke="none" fill="#43dd93" fill-opacity="1"><g><path d="M10 13C10 14.657 11.343 16 13 16C14.657 16 16 14.657 16 13C16 11.343 14.657 10 13 10C11.343 10 10 11.343 10 13"></path></g></g><g id="cp_3_column-3_1hgbdqz1rw979h-fill-merged" stroke="none" fill="#43dd93" fill-opacity="1"><g><path d="M10 115C10 116.657 11.343 118 13 118C14.657 118 16 116.657 16 115C16 113.343 14.657 112 13 112C11.343 112 10 113.343 10 115"></path></g></g></g><g id="g-root-cp_3_column-3_1hgbdqz1rw979h-stroke" data-item-order="-398134" transform="translate(198, 149)"><g id="cp_3_column-3_1hgbdqz1rw979h-stroke" fill="none" stroke-linecap="round" stroke-linejoin="round" stroke-miterlimit="4" stroke="#2c2c2c" stroke-width="2" stroke-opacity="1"><g><path d="M 10 13C 10 14.656854 11.343146 16 13 16C 14.656854 16 16 14.656854 16 13C 16 11.343146 14.656854 10 13 10C 11.343146 10 10 11.343146 10 13"></path></g></g><g id="cp_3_column-3_1hgbdqz1rw979h-stroke" fill="none" stroke-linecap="round" stroke-linejoin="round" stroke-miterlimit="4" stroke="#2c2c2c" stroke-width="2" stroke-opacity="1"><g><path d="M 13 16L 13 112"></path></g></g><g id="cp_3_column-3_1hgbdqz1rw979h-stroke" fill="none" stroke-linecap="round" stroke-linejoin="round" stroke-miterlimit="4" stroke="#2c2c2c" stroke-width="2" stroke-opacity="1"><g><path d="M 10 115C 10 116.656854 11.343146 118 13 118C 14.656854 118 16 116.656854 16 115C 16 113.343146 14.656854 112 13 112C 11.343146 112 10 113.343146 10 115"></path></g></g></g><g id="g-root-cp_5_column-5_18kodi31rw9826-fill" data-item-order="-398118" transform="translate(378, 149)"><g id="cp_5_column-5_18kodi31rw9826-fill-merged" stroke="none" fill="#ffe711" fill-opacity="1"><g><path d="M10 13C10 14.657 11.343 16 13 16C14.657 16 16 14.657 16 13C16 11.343 14.657 10 13 10C11.343 10 10 11.343 10 13"></path></g></g><g id="cp_5_column-5_18kodi31rw9826-fill-merged" stroke="none" fill="#ffe711" fill-opacity="1"><g><path d="M10 115C10 116.657 11.343 118 13 118C14.657 118 16 116.657 16 115C16 113.343 14.657 112 13 112C11.343 112 10 113.343 10 115"></path></g></g></g><g id="g-root-cp_5_column-5_18kodi31rw9826-stroke" data-item-order="-398118" transform="translate(378, 149)"><g id="cp_5_column-5_18kodi31rw9826-stroke" fill="none" stroke-linecap="round" stroke-linejoin="round" stroke-miterlimit="4" stroke="#2c2c2c" stroke-width="2" stroke-opacity="1"><g><path d="M 10 13C 10 14.656854 11.343146 16 13 16C 14.656854 16 16 14.656854 16 13C 16 11.343146 14.656854 10 13 10C 11.343146 10 10 11.343146 10 13"></path></g></g><g id="cp_5_column-5_18kodi31rw9826-stroke" fill="none" stroke-linecap="round" stroke-linejoin="round" stroke-miterlimit="4" stroke="#2c2c2c" stroke-width="2" stroke-opacity="1"><g><path d="M 13 16L 13 112"></path></g></g><g id="cp_5_column-5_18kodi31rw9826-stroke" fill="none" stroke-linecap="round" stroke-linejoin="round" stroke-miterlimit="4" stroke="#2c2c2c" stroke-width="2" stroke-opacity="1"><g><path d="M 10 115C 10 116.656854 11.343146 118 13 118C 14.656854 118 16 116.656854 16 115C 16 113.343146 14.656854 112 13 112C 11.343146 112 10 113.343146 10 115"></path></g></g></g><g id="g-root-cp_7_column-7_18kodi31rw9827-fill" data-item-order="-398102" transform="translate(558, 149)"><g id="cp_7_column-7_18kodi31rw9827-fill-merged" stroke="none" fill="#fb6762" fill-opacity="1"><g><path d="M10 13C10 14.657 11.343 16 13 16C14.657 16 16 14.657 16 13C16 11.343 14.657 10 13 10C11.343 10 10 11.343 10 13"></path></g></g><g id="cp_7_column-7_18kodi31rw9827-fill-merged" stroke="none" fill="#fb6762" fill-opacity="1"><g><path d="M10 115C10 116.657 11.343 118 13 118C14.657 118 16 116.657 16 115C16 113.343 14.657 112 13 112C11.343 112 10 113.343 10 115"></path></g></g></g><g id="g-root-cp_7_column-7_18kodi31rw9827-stroke" data-item-order="-398102" transform="translate(558, 149)"><g id="cp_7_column-7_18kodi31rw9827-stroke" fill="none" stroke-linecap="round" stroke-linejoin="round" stroke-miterlimit="4" stroke="#2c2c2c" stroke-width="2" stroke-opacity="1"><g><path d="M 10 13C 10 14.656854 11.343146 16 13 16C 14.656854 16 16 14.656854 16 13C 16 11.343146 14.656854 10 13 10C 11.343146 10 10 11.343146 10 13"></path></g></g><g id="cp_7_column-7_18kodi31rw9827-stroke" fill="none" stroke-linecap="round" stroke-linejoin="round" stroke-miterlimit="4" stroke="#2c2c2c" stroke-width="2" stroke-opacity="1"><g><path d="M 13 16L 13 112"></path></g></g><g id="cp_7_column-7_18kodi31rw9827-stroke" fill="none" stroke-linecap="round" stroke-linejoin="round" stroke-miterlimit="4" stroke="#2c2c2c" stroke-width="2" stroke-opacity="1"><g><path d="M 10 115C 10 116.656854 11.343146 118 13 118C 14.656854 118 16 116.656854 16 115C 16 113.343146 14.656854 112 13 112C 11.343146 112 10 113.343146 10 115"></path></g></g></g><g id="g-root-cp_1_g-1_145hcgr1rw95oo-fill" data-item-order="-398084" transform="translate(21, 266)"><g id="cp_1_g-1_145hcgr1rw95oo-fill-merged" stroke="none" fill="#4f91fc" fill-opacity="1"><g><path d="M76 10 H10L28 46L10 82 H76L94 46L76 10"></path></g></g></g><g id="g-root-cp_1_g-1_145hcgr1rw95oo-stroke" data-item-order="-398084" transform="translate(21, 266)"><g id="cp_1_g-1_145hcgr1rw95oo-stroke" fill="none" stroke-linecap="round" stroke-linejoin="round" stroke-miterlimit="4" stroke="#2c2c2c" stroke-width="2" stroke-opacity="1"><g><path d="M 76 10L 10 10L 28 46L 10 82L 76 82L 94 46L 76 10Z"></path></g></g></g><g id="g-root-cp_2_g-2_zpnucb1rw96gx-fill" data-item-order="-398076" transform="translate(111, 266)"><g id="cp_2_g-2_zpnucb1rw96gx-fill-merged" stroke="none" fill="#1ac3fb" fill-opacity="1"><g><path d="M76 10 H10L28 46L10 82 H76L94 46L76 10"></path></g></g></g><g id="g-root-cp_2_g-2_zpnucb1rw96gx-stroke" data-item-order="-398076" transform="translate(111, 266)"><g id="cp_2_g-2_zpnucb1rw96gx-stroke" fill="none" stroke-linecap="round" stroke-linejoin="round" stroke-miterlimit="4" stroke="#2c2c2c" stroke-width="2" stroke-opacity="1"><g><path d="M 76 10L 10 10L 28 46L 10 82L 76 82L 94 46L 76 10Z"></path></g></g></g><g id="g-root-cp_3_g-3_zpnucb1rw96gy-fill" data-item-order="-398070" transform="translate(201, 266)"><g id="cp_3_g-3_zpnucb1rw96gy-fill-merged" stroke="none" fill="#43dd93" fill-opacity="1"><g><path d="M76 10 H10L28 46L10 82 H76L94 46L76 10"></path></g></g></g><g id="g-root-cp_3_g-3_zpnucb1rw96gy-stroke" data-item-order="-398070" transform="translate(201, 266)"><g id="cp_3_g-3_zpnucb1rw96gy-stroke" fill="none" stroke-linecap="round" stroke-linejoin="round" stroke-miterlimit="4" stroke="#2c2c2c" stroke-width="2" stroke-opacity="1"><g><path d="M 76 10L 10 10L 28 46L 10 82L 76 82L 94 46L 76 10Z"></path></g></g></g><g id="g-root-cp_4_g-4_qu0u3f1rw979n-fill" data-item-order="-398064" transform="translate(291, 266)"><g id="cp_4_g-4_qu0u3f1rw979n-fill-merged" stroke="none" fill="#a6da37" fill-opacity="1"><g><path d="M76 10 H10L28 46L10 82 H76L94 46L76 10"></path></g></g></g><g id="g-root-cp_4_g-4_qu0u3f1rw979n-stroke" data-item-order="-398064" transform="translate(291, 266)"><g id="cp_4_g-4_qu0u3f1rw979n-stroke" fill="none" stroke-linecap="round" stroke-linejoin="round" stroke-miterlimit="4" stroke="#2c2c2c" stroke-width="2" stroke-opacity="1"><g><path d="M 76 10L 10 10L 28 46L 10 82L 76 82L 94 46L 76 10Z"></path></g></g></g><g id="g-root-cp_5_g-5_qu0u3f1rw979o-fill" data-item-order="-398058" transform="translate(381, 266)"><g id="cp_5_g-5_qu0u3f1rw979o-fill-merged" stroke="none" fill="#ffe711" fill-opacity="1"><g><path d="M76 10 H10L28 46L10 82 H76L94 46L76 10"></path></g></g></g><g id="g-root-cp_5_g-5_qu0u3f1rw979o-stroke" data-item-order="-398058" transform="translate(381, 266)"><g id="cp_5_g-5_qu0u3f1rw979o-stroke" fill="none" stroke-linecap="round" stroke-linejoin="round" stroke-miterlimit="4" stroke="#2c2c2c" stroke-width="2" stroke-opacity="1"><g><path d="M 76 10L 10 10L 28 46L 10 82L 76 82L 94 46L 76 10Z"></path></g></g></g><g id="g-root-cp_6_g-6_me7byz1rw981x-fill" data-item-order="-398052" transform="translate(471, 266)"><g id="cp_6_g-6_me7byz1rw981x-fill-merged" stroke="none" fill="#f79438" fill-opacity="1"><g><path d="M76 10 H10L28 46L10 82 H76L94 46L76 10"></path></g></g></g><g id="g-root-cp_6_g-6_me7byz1rw981x-stroke" data-item-order="-398052" transform="translate(471, 266)"><g id="cp_6_g-6_me7byz1rw981x-stroke" fill="none" stroke-linecap="round" stroke-linejoin="round" stroke-miterlimit="4" stroke="#2c2c2c" stroke-width="2" stroke-opacity="1"><g><path d="M 76 10L 10 10L 28 46L 10 82L 76 82L 94 46L 76 10Z"></path></g></g></g><g id="g-root-cp_7_g-7_me7byz1rw981y-fill" data-item-order="-398046" transform="translate(561, 266)"><g id="cp_7_g-7_me7byz1rw981y-fill-merged" stroke="none" fill="#fb6762" fill-opacity="1"><g><path d="M76 10 H10L28 46L10 82 H76L94 46L76 10"></path></g></g></g><g id="g-root-cp_7_g-7_me7byz1rw981y-stroke" data-item-order="-398046" transform="translate(561, 266)"><g id="cp_7_g-7_me7byz1rw981y-stroke" fill="none" stroke-linecap="round" stroke-linejoin="round" stroke-miterlimit="4" stroke="#2c2c2c" stroke-width="2" stroke-opacity="1"><g><path d="M 76 10L 10 10L 28 46L 10 82L 76 82L 94 46L 76 10Z"></path></g></g></g><g id="g-root-cp_8_g-8_dj6st71rw95ov-fill" data-item-order="-398040" transform="translate(651, 266)"><g id="cp_8_g-8_dj6st71rw95ov-fill-merged" stroke="none" fill="#f366bb" fill-opacity="1"><g><path d="M76 10 H10L28 46L10 82 H76L94 46L76 10"></path></g></g></g><g id="g-root-cp_8_g-8_dj6st71rw95ov-stroke" data-item-order="-398040" transform="translate(651, 266)"><g id="cp_8_g-8_dj6st71rw95ov-stroke" fill="none" stroke-linecap="round" stroke-linejoin="round" stroke-miterlimit="4" stroke="#2c2c2c" stroke-width="2" stroke-opacity="1"><g><path d="M 76 10L 10 10L 28 46L 10 82L 76 82L 94 46L 76 10Z"></path></g></g></g><g id="g-root-cp_2_column-2_93daor1rw96h4-fill" data-item-order="-398032" transform="translate(108, 347)"><g id="cp_2_column-2_93daor1rw96h4-fill-merged" stroke="none" fill="#1ac3fb" fill-opacity="1"><g><path d="M10 13C10 14.657 11.343 16 13 16C14.657 16 16 14.657 16 13C16 11.343 14.657 10 13 10C11.343 10 10 11.343 10 13"></path></g></g><g id="cp_2_column-2_93daor1rw96h4-fill-merged" stroke="none" fill="#1ac3fb" fill-opacity="1"><g><path d="M10 151C10 152.657 11.343 154 13 154C14.657 154 16 152.657 16 151C16 149.343 14.657 148 13 148C11.343 148 10 149.343 10 151"></path></g></g></g><g id="g-root-cp_2_column-2_93daor1rw96h4-stroke" data-item-order="-398032" transform="translate(108, 347)"><g id="cp_2_column-2_93daor1rw96h4-stroke" fill="none" stroke-linecap="round" stroke-linejoin="round" stroke-miterlimit="4" stroke="#2c2c2c" stroke-width="2" stroke-opacity="1"><g><path d="M 10 13C 10 14.656854 11.343146 16 13 16C 14.656854 16 16 14.656854 16 13C 16 11.343146 14.656854 10 13 10C 11.343146 10 10 11.343146 10 13"></path></g></g><g id="cp_2_column-2_93daor1rw96h4-stroke" fill="none" stroke-linecap="round" stroke-linejoin="round" stroke-miterlimit="4" stroke="#2c2c2c" stroke-width="2" stroke-opacity="1"><g><path d="M 13 16L 13 147.999992"></path></g></g><g id="cp_2_column-2_93daor1rw96h4-stroke" fill="none" stroke-linecap="round" stroke-linejoin="round" stroke-miterlimit="4" stroke="#2c2c2c" stroke-width="2" stroke-opacity="1"><g><path d="M 10 151C 10 152.65686 11.343146 154 13 154C 14.656854 154 16 152.65686 16 151C 16 149.343147 14.656854 148 13 148C 11.343146 148 10 149.343147 10 151"></path></g></g></g><g id="g-root-cp_4_column-4_93daor1rw96h5-fill" data-item-order="-398016" transform="translate(288, 347)"><g id="cp_4_column-4_93daor1rw96h5-fill-merged" stroke="none" fill="#a6da37" fill-opacity="1"><g><path d="M10 13C10 14.657 11.343 16 13 16C14.657 16 16 14.657 16 13C16 11.343 14.657 10 13 10C11.343 10 10 11.343 10 13"></path></g></g><g id="cp_4_column-4_93daor1rw96h5-fill-merged" stroke="none" fill="#a6da37" fill-opacity="1"><g><path d="M10 133C10 134.657 11.343 136 13 136C14.657 136 16 134.657 16 133C16 131.343 14.657 130 13 130C11.343 130 10 131.343 10 133"></path></g></g></g><g id="g-root-cp_4_column-4_93daor1rw96h5-stroke" data-item-order="-398016" transform="translate(288, 347)"><g id="cp_4_column-4_93daor1rw96h5-stroke" fill="none" stroke-linecap="round" stroke-linejoin="round" stroke-miterlimit="4" stroke="#2c2c2c" stroke-width="2" stroke-opacity="1"><g><path d="M 10 13C 10 14.656854 11.343146 16 13 16C 14.656854 16 16 14.656854 16 13C 16 11.343146 14.656854 10 13 10C 11.343146 10 10 11.343146 10 13"></path></g></g><g id="cp_4_column-4_93daor1rw96h5-stroke" fill="none" stroke-linecap="round" stroke-linejoin="round" stroke-miterlimit="4" stroke="#2c2c2c" stroke-width="2" stroke-opacity="1"><g><path d="M 13 16L 13 130.000008"></path></g></g><g id="cp_4_column-4_93daor1rw96h5-stroke" fill="none" stroke-linecap="round" stroke-linejoin="round" stroke-miterlimit="4" stroke="#2c2c2c" stroke-width="2" stroke-opacity="1"><g><path d="M 10 133.000008C 10 134.656862 11.343146 136.000008 13 136.000008C 14.656854 136.000008 16 134.656862 16 133.000008C 16 131.343154 14.656854 130.000008 13 130.000008C 11.343146 130.000008 10 131.343154 10 133.000008"></path></g></g></g><g id="g-root-cp_6_column-6_4njskb1rw979e-fill" data-item-order="-398000" transform="translate(468, 347)"><g id="cp_6_column-6_4njskb1rw979e-fill-merged" stroke="none" fill="#f79438" fill-opacity="1"><g><path d="M10 13C10 14.657 11.343 16 13 16C14.657 16 16 14.657 16 13C16 11.343 14.657 10 13 10C11.343 10 10 11.343 10 13"></path></g></g><g id="cp_6_column-6_4njskb1rw979e-fill-merged" stroke="none" fill="#f79438" fill-opacity="1"><g><path d="M10 115C10 116.657 11.343 118 13 118C14.657 118 16 116.657 16 115C16 113.343 14.657 112 13 112C11.343 112 10 113.343 10 115"></path></g></g></g><g id="g-root-cp_6_column-6_4njskb1rw979e-stroke" data-item-order="-398000" transform="translate(468, 347)"><g id="cp_6_column-6_4njskb1rw979e-stroke" fill="none" stroke-linecap="round" stroke-linejoin="round" stroke-miterlimit="4" stroke="#2c2c2c" stroke-width="2" stroke-opacity="1"><g><path d="M 10 13C 10 14.656854 11.343146 16 13 16C 14.656854 16 16 14.656854 16 13C 16 11.343146 14.656854 10 13 10C 11.343146 10 10 11.343146 10 13"></path></g></g><g id="cp_6_column-6_4njskb1rw979e-stroke" fill="none" stroke-linecap="round" stroke-linejoin="round" stroke-miterlimit="4" stroke="#2c2c2c" stroke-width="2" stroke-opacity="1"><g><path d="M 13 16L 13 112"></path></g></g><g id="cp_6_column-6_4njskb1rw979e-stroke" fill="none" stroke-linecap="round" stroke-linejoin="round" stroke-miterlimit="4" stroke="#2c2c2c" stroke-width="2" stroke-opacity="1"><g><path d="M 10 115C 10 116.656854 11.343146 118 13 118C 14.656854 118 16 116.656854 16 115C 16 113.343146 14.656854 112 13 112C 11.343146 112 10 113.343146 10 115"></path></g></g></g><g id="g-root-cp_8_column-8_1ut0uaj1rw97uz-fill" data-item-order="-397984" transform="translate(648, 347)"><g id="cp_8_column-8_1ut0uaj1rw97uz-fill-merged" stroke="none" fill="#f366bb" fill-opacity="1"><g><path d="M10 13C10 14.657 11.343 16 13 16C14.657 16 16 14.657 16 13C16 11.343 14.657 10 13 10C11.343 10 10 11.343 10 13"></path></g></g><g id="cp_8_column-8_1ut0uaj1rw97uz-fill-merged" stroke="none" fill="#f366bb" fill-opacity="1"><g><path d="M10 97C10 98.657 11.343 100 13 100C14.657 100 16 98.657 16 97C16 95.343 14.657 94 13 94C11.343 94 10 95.343 10 97"></path></g></g></g><g id="g-root-cp_8_column-8_1ut0uaj1rw97uz-stroke" data-item-order="-397984" transform="translate(648, 347)"><g id="cp_8_column-8_1ut0uaj1rw97uz-stroke" fill="none" stroke-linecap="round" stroke-linejoin="round" stroke-miterlimit="4" stroke="#2c2c2c" stroke-width="2" stroke-opacity="1"><g><path d="M 10 13C 10 14.656854 11.343146 16 13 16C 14.656854 16 16 14.656854 16 13C 16 11.343146 14.656854 10 13 10C 11.343146 10 10 11.343146 10 13"></path></g></g><g id="cp_8_column-8_1ut0uaj1rw97uz-stroke" fill="none" stroke-linecap="round" stroke-linejoin="round" stroke-miterlimit="4" stroke="#2c2c2c" stroke-width="2" stroke-opacity="1"><g><path d="M 13.000001 16L 13.000001 94"></path></g></g><g id="cp_8_column-8_1ut0uaj1rw97uz-stroke" fill="none" stroke-linecap="round" stroke-linejoin="round" stroke-miterlimit="4" stroke="#2c2c2c" stroke-width="2" stroke-opacity="1"><g><path d="M 10 97C 10 98.656854 11.343146 100 13 100C 14.656854 100 16 98.656854 16 97C 16 95.343146 14.656854 94 13 94C 11.343146 94 10 95.343146 10 97"></path></g></g></g><g id="g-root-tx_usosegur_18gb1wb1rwakg9-fill" data-item-order="0" transform="translate(393, 188)"><g id="tx_usosegur_18gb1wb1rwakg9-fill-merged" stroke="none" fill="#f4f4f4" fill-opacity="1"><g><text style="font: 15px Roboto, sans-serif; white-space: pre;" transform="translate(10, 37)" font-size="15px" font-family="Roboto, sans-serif"><tspan x="2" y="-9" dominant-baseline="ideographic">Módulo 5: Entornos </tspan><tspan x="2" y="9" dominant-baseline="ideographic">de Trabajo Hibridos </tspan><tspan x="2" y="27" dominant-baseline="ideographic">Seguros</tspan></text></g></g></g><g id="g-root-tx_usosegur_18gb1wb1rwakg9-stroke" data-item-order="0" transform="translate(393, 188)"></g><g id="g-root-tx_gestinde_qp11ej1rwamth-fill" data-item-order="0" transform="translate(573, 188)"><g id="tx_gestinde_qp11ej1rwamth-fill-merged" stroke="none" fill="#f4f4f4" fill-opacity="1"><g><text style="font: 15px Roboto, sans-serif; white-space: pre;" transform="translate(10, 37)" font-size="15px" font-family="Roboto, sans-serif"><tspan x="2" y="-9" dominant-baseline="ideographic">Módulo 7: Incidentes </tspan><tspan x="2" y="9" dominant-baseline="ideographic">de Seguridad de la </tspan><tspan x="2" y="27" dominant-baseline="ideographic">Información</tspan></text></g></g></g><g id="g-root-tx_gestinde_qp11ej1rwamth-stroke" data-item-order="0" transform="translate(573, 188)"></g><g id="g-root-tx_intelige_1lr536j1rwam11-fill" data-item-order="0" transform="translate(213, 188)"><g id="tx_intelige_1lr536j1rwam11-fill-merged" stroke="none" fill="#f4f4f4" fill-opacity="1"><g><text style="font: 15px Roboto, sans-serif; white-space: pre;" transform="translate(10, 37)" font-size="15px" font-family="Roboto, sans-serif"><tspan x="2" y="-9" dominant-baseline="ideographic">Módulo 3: </tspan><tspan x="2" y="9" dominant-baseline="ideographic">Inteligencia Artificial </tspan><tspan x="2" y="27" dominant-baseline="ideographic">y Ciberseguridad</tspan></text></g></g></g><g id="g-root-tx_intelige_1lr536j1rwam11-stroke" data-item-order="0" transform="translate(213, 188)"></g><g id="g-root-tx_fundamen_4gokm31rwan0p-fill" data-item-order="0" transform="translate(33, 152)"><g id="tx_fundamen_4gokm31rwan0p-fill-merged" stroke="none" fill="#f4f4f4" fill-opacity="1"><g><text style="font: 15px Roboto, sans-serif; white-space: pre;" transform="translate(10, 55)" font-size="15px" font-family="Roboto, sans-serif"><tspan x="2" y="-27" dominant-baseline="ideographic">Módulo 1: </tspan><tspan x="2" y="-9" dominant-baseline="ideographic">Fundamentos de la </tspan><tspan x="2" y="9" dominant-baseline="ideographic">Seguridad de la </tspan><tspan x="2" y="27" dominant-baseline="ideographic">Información en la </tspan><tspan x="2" y="45" dominant-baseline="ideographic">CGR</tspan></text></g></g></g><g id="g-root-tx_fundamen_4gokm31rwan0p-stroke" data-item-order="0" transform="translate(33, 152)"></g><g id="g-root-tx_octubre_v4ujiz1rwam17-fill" data-item-order="0" transform="translate(573, 152)"><g id="tx_octubre_v4ujiz1rwam17-fill-merged" stroke="none" fill="#fb6762" fill-opacity="1"><g><text style="font: bold 20px Roboto, sans-serif; white-space: pre;" transform="translate(10, 22)" font-weight="bold" font-size="20px" font-family="Roboto, sans-serif"><tspan x="2" y="12" dominant-baseline="ideographic">Octubre</tspan></text></g></g></g><g id="g-root-tx_octubre_v4ujiz1rwam17-stroke" data-item-order="0" transform="translate(573, 152)"></g><g id="g-root-tx_agosto_1cvi2xn1rwamtr-fill" data-item-order="0" transform="translate(393, 152)"><g id="tx_agosto_1cvi2xn1rwamtr-fill-merged" stroke="none" fill="#ffe711" fill-opacity="1"><g><text style="font: bold 20px Roboto, sans-serif; white-space: pre;" transform="translate(10, 22)" font-weight="bold" font-size="20px" font-family="Roboto, sans-serif"><tspan x="2" y="12" dominant-baseline="ideographic">Agosto</tspan></text></g></g></g><g id="g-root-tx_agosto_1cvi2xn1rwamtr-stroke" data-item-order="0" transform="translate(393, 152)"></g><g id="g-root-tx_junio_1q6ylaz1rwal8r-fill" data-item-order="0" transform="translate(212.282470703125, 137.7894287109375)"><g id="tx_junio_1q6ylaz1rwal8r-fill-merged" stroke="none" fill="#f4f4f4" fill-opacity="1"><g><text style="font: bold 20px Roboto, sans-serif; white-space: pre;" transform="translate(10, 22)" font-weight="bold" font-size="20px" font-family="Roboto, sans-serif"><tspan x="2" y="12" dominant-baseline="ideographic">Junio</tspan></text></g></g></g><g id="g-root-tx_junio_1q6ylaz1rwal8r-stroke" data-item-order="0" transform="translate(212.282470703125, 137.7894287109375)"></g><g id="g-root-tx_abril_8wi2qj1rwam8f-fill" data-item-order="0" transform="translate(33, 116)"><g id="tx_abril_8wi2qj1rwam8f-fill-merged" stroke="none" fill="#4f91fc" fill-opacity="1"><g><text style="font: bold 20px Roboto, sans-serif; white-space: pre;" transform="translate(10, 22)" font-weight="bold" font-size="20px" font-family="Roboto, sans-serif"><tspan x="2" y="12" dominant-baseline="ideographic">Abril</tspan></text></g></g></g><g id="g-root-tx_abril_8wi2qj1rwam8f-stroke" data-item-order="0" transform="translate(33, 116)"></g><g id="g-root-tx_cronogra_v2z49n1rwan0l-fill" data-item-order="0" transform="translate(103.2890625, 38)"><g id="tx_cronogra_v2z49n1rwan0l-fill-merged" stroke="none" fill="#f4f4f4" fill-opacity="1"><g><text style="font: bold 25px Roboto, sans-serif; white-space: pre;" transform="translate(317.7109375, 25)" font-weight="bold" font-size="25px" font-family="Roboto, sans-serif"><tspan x="-305.71" y="15" dominant-baseline="ideographic">Cronograma de Seguridad de la Información en la CGR</tspan></text></g></g></g><g id="g-root-tx_cronogra_v2z49n1rwan0l-stroke" data-item-order="0" transform="translate(103.2890625, 38)"></g><g id="g-root-tx_amenazas_1lt0ifv1rwal1p-fill" data-item-order="0" transform="translate(303, 398)"><g id="tx_amenazas_1lt0ifv1rwal1p-fill-merged" stroke="none" fill="#f4f4f4" fill-opacity="1"><g><text style="font: 15px Roboto, sans-serif; white-space: pre;" transform="translate(10, 46)" font-size="15px" font-family="Roboto, sans-serif"><tspan x="2" y="-18" dominant-baseline="ideographic">Módulo 4: </tspan><tspan x="2" y="0" dominant-baseline="ideographic">Amenazas Digitales </tspan><tspan x="2" y="18" dominant-baseline="ideographic">y Protección contra </tspan><tspan x="2" y="36" dominant-baseline="ideographic">Malware</tspan></text></g></g></g><g id="g-root-tx_amenazas_1lt0ifv1rwal1p-stroke" data-item-order="0" transform="translate(303, 398)"></g><g id="g-root-tx_mayo_4ijzvf1rwam1b-fill" data-item-order="0" transform="translate(123, 362)"><g id="tx_mayo_4ijzvf1rwam1b-fill-merged" stroke="none" fill="#1ac3fb" fill-opacity="1"><g><text style="font: bold 20px Roboto, sans-serif; white-space: pre;" transform="translate(10, 22)" font-weight="bold" font-size="20px" font-family="Roboto, sans-serif"><tspan x="2" y="12" dominant-baseline="ideographic">Mayo</tspan></text></g></g></g><g id="g-root-tx_mayo_4ijzvf1rwam1b-stroke" data-item-order="0" transform="translate(123, 362)"></g><g id="g-root-tx_julio_1uonior1rwak8z-fill" data-item-order="0" transform="translate(303, 362)"><g id="tx_julio_1uonior1rwak8z-fill-merged" stroke="none" fill="#a6da37" fill-opacity="1"><g><text style="font: bold 20px Roboto, sans-serif; white-space: pre;" transform="translate(10, 22)" font-weight="bold" font-size="20px" font-family="Roboto, sans-serif"><tspan x="2" y="12" dominant-baseline="ideographic">Julio</tspan></text></g></g></g><g id="g-root-tx_julio_1uonior1rwak8z-stroke" data-item-order="0" transform="translate(303, 362)"></g><g id="g-root-tx_setiembr_18hk02j1rwammn-fill" data-item-order="0" transform="translate(483, 362)"><g id="tx_setiembr_18hk02j1rwammn-fill-merged" stroke="none" fill="#f79438" fill-opacity="1"><g><text style="font: bold 20px Roboto, sans-serif; white-space: pre;" transform="translate(10, 22)" font-weight="bold" font-size="20px" font-family="Roboto, sans-serif"><tspan x="2" y="12" dominant-baseline="ideographic">Setiembre</tspan></text></g></g></g><g id="g-root-tx_setiembr_18hk02j1rwammn-stroke" data-item-order="0" transform="translate(483, 362)"></g><g id="g-root-tx_noviembr_qqwgnv1rwalu3-fill" data-item-order="0" transform="translate(663, 362)"><g id="tx_noviembr_qqwgnv1rwalu3-fill-merged" stroke="none" fill="#f366bb" fill-opacity="1"><g><text style="font: bold 20px Roboto, sans-serif; white-space: pre;" transform="translate(10, 22)" font-weight="bold" font-size="20px" font-family="Roboto, sans-serif"><tspan x="2" y="12" dominant-baseline="ideographic">Noviembre</tspan></text></g></g></g><g id="g-root-tx_noviembr_qqwgnv1rwalu3-stroke" data-item-order="0" transform="translate(663, 362)"></g><g id="g-root-tx_teletrab_142cz171rwak95-fill" data-item-order="0" transform="translate(483, 398)"><g id="tx_teletrab_142cz171rwak95-fill-merged" stroke="none" fill="#f4f4f4" fill-opacity="1"><g><text style="font: 15px Roboto, sans-serif; white-space: pre;" transform="translate(10, 37)" font-size="15px" font-family="Roboto, sans-serif"><tspan x="2" y="-9" dominant-baseline="ideographic">Módulo 6: Ingeniería </tspan><tspan x="2" y="9" dominant-baseline="ideographic">Social y </tspan><tspan x="2" y="27" dominant-baseline="ideographic">Manipulación</tspan></text></g></g></g><g id="g-root-tx_teletrab_142cz171rwak95-stroke" data-item-order="0" transform="translate(483, 398)"></g><g id="g-root-tx_aspectos_mb2yjf1rwammd-fill" data-item-order="0" transform="translate(663, 398)"><g id="tx_aspectos_mb2yjf1rwammd-fill-merged" stroke="none" fill="#f4f4f4" fill-opacity="1"><g><text style="font: 15px Roboto, sans-serif; white-space: pre;" transform="translate(10, 28)" font-size="15px" font-family="Roboto, sans-serif"><tspan x="2" y="0" dominant-baseline="ideographic">Módulo 8: Aspectos </tspan><tspan x="2" y="18" dominant-baseline="ideographic">Avanzados </tspan></text></g></g></g><g id="g-root-tx_aspectos_mb2yjf1rwammd-stroke" data-item-order="0" transform="translate(663, 398)"></g><g id="g-root-tx_protecci_2qhqz1rwamtl-fill" data-item-order="0" transform="translate(123, 398)"><g id="tx_protecci_2qhqz1rwamtl-fill-merged" stroke="none" fill="#f4f4f4" fill-opacity="1"><g><text style="font: 15px Roboto, sans-serif; white-space: pre;" transform="translate(10, 55)" font-size="15px" font-family="Roboto, sans-serif"><tspan x="2" y="-27" dominant-baseline="ideographic">Módulo 2: </tspan><tspan x="2" y="-9" dominant-baseline="ideographic">Protección de Datos </tspan><tspan x="2" y="9" dominant-baseline="ideographic">Personales y </tspan><tspan x="2" y="27" dominant-baseline="ideographic">Clasificación de la </tspan><tspan x="2" y="45" dominant-baseline="ideographic">Información</tspan></text></g></g></g><g id="g-root-tx_protecci_2qhqz1rwamtl-stroke" data-item-order="0" transform="translate(123, 398)"></g></g></g></svg>