<?xml version="1.0" encoding="utf-8" standalone="yes"?>
<!DOCTYPE svg PUBLIC "-//W3C//DTD SVG 1.1//EN" "http://www.w3.org/Graphics/SVG/1.1/DTD/svg11.dtd">
<svg style="fill:none;stroke:none;fill-rule:evenodd;clip-rule:evenodd;stroke-linecap:round;stroke-linejoin:round;stroke-miterlimit:1.5;" version="1.1" xmlns="http://www.w3.org/2000/svg" xmlns:xlink="http://www.w3.org/1999/xlink" width="888" height="570" viewBox="0 0 888 570"><style class="text-font-style fontImports" data-font-family="Roboto">@import url(https://fonts.googleapis.com/css2?family=Roboto:wght@400;700&amp;amp;display=block);</style><g id="items" style="isolation: isolate"><g id="blend" style="mix-blend-mode: normal"><g id="g-root-cp_1_column-1_deu63f1s6ed5b-fill" data-item-order="-398150" transform="translate(41, 113)"><g id="cp_1_column-1_deu63f1s6ed5b-fill-merged" stroke="none" fill="#4f91fc" fill-opacity="1"><g><path d="M10 13C10 14.657 11.343 16 13 16C14.657 16 16 14.657 16 13C16 11.343 14.657 10 13 10C11.343 10 10 11.343 10 13"></path></g></g><g id="cp_1_column-1_deu63f1s6ed5b-fill-merged" stroke="none" fill="#4f91fc" fill-opacity="1"><g><path d="M10 151C10 152.657 11.343 154 13 154C14.657 154 16 152.657 16 151C16 149.343 14.657 148 13 148C11.343 148 10 149.343 10 151"></path></g></g></g><g id="g-root-cp_1_column-1_deu63f1s6ed5b-stroke" data-item-order="-398150" transform="translate(41, 113)"><g id="cp_1_column-1_deu63f1s6ed5b-stroke" fill="none" stroke-linecap="round" stroke-linejoin="round" stroke-miterlimit="4" stroke="#2c2c2c" stroke-width="2" stroke-opacity="1"><g><path d="M 10 13C 10 14.656854 11.343146 16 13 16C 14.656854 16 16 14.656854 16 13C 16 11.343146 14.656854 10 13 10C 11.343146 10 10 11.343146 10 13"></path></g></g><g id="cp_1_column-1_deu63f1s6ed5b-stroke" fill="none" stroke-linecap="round" stroke-linejoin="round" stroke-miterlimit="4" stroke="#2c2c2c" stroke-width="2" stroke-opacity="1"><g><path d="M 13 16L 13 148"></path></g></g><g id="cp_1_column-1_deu63f1s6ed5b-stroke" fill="none" stroke-linecap="round" stroke-linejoin="round" stroke-miterlimit="4" stroke="#2c2c2c" stroke-width="2" stroke-opacity="1"><g><path d="M 10 151C 10 152.656854 11.343146 154 13 154C 14.656854 154 16 152.656854 16 151C 16 149.343146 14.656854 148 13 148C 11.343146 148 10 149.343146 10 151"></path></g></g></g><g id="g-root-cp_3_column-3_8z0nyz1s6edxk-fill" data-item-order="-398134" transform="translate(221, 149)"><g id="cp_3_column-3_8z0nyz1s6edxk-fill-merged" stroke="none" fill="#43dd93" fill-opacity="1"><g><path d="M10 13C10 14.657 11.343 16 13 16C14.657 16 16 14.657 16 13C16 11.343 14.657 10 13 10C11.343 10 10 11.343 10 13"></path></g></g><g id="cp_3_column-3_8z0nyz1s6edxk-fill-merged" stroke="none" fill="#43dd93" fill-opacity="1"><g><path d="M10 115C10 116.657 11.343 118 13 118C14.657 118 16 116.657 16 115C16 113.343 14.657 112 13 112C11.343 112 10 113.343 10 115"></path></g></g></g><g id="g-root-cp_3_column-3_8z0nyz1s6edxk-stroke" data-item-order="-398134" transform="translate(221, 149)"><g id="cp_3_column-3_8z0nyz1s6edxk-stroke" fill="none" stroke-linecap="round" stroke-linejoin="round" stroke-miterlimit="4" stroke="#2c2c2c" stroke-width="2" stroke-opacity="1"><g><path d="M 10 13C 10 14.656854 11.343146 16 13 16C 14.656854 16 16 14.656854 16 13C 16 11.343146 14.656854 10 13 10C 11.343146 10 10 11.343146 10 13"></path></g></g><g id="cp_3_column-3_8z0nyz1s6edxk-stroke" fill="none" stroke-linecap="round" stroke-linejoin="round" stroke-miterlimit="4" stroke="#2c2c2c" stroke-width="2" stroke-opacity="1"><g><path d="M 13 16L 13 112"></path></g></g><g id="cp_3_column-3_8z0nyz1s6edxk-stroke" fill="none" stroke-linecap="round" stroke-linejoin="round" stroke-miterlimit="4" stroke="#2c2c2c" stroke-width="2" stroke-opacity="1"><g><path d="M 10 115C 10 116.656854 11.343146 118 13 118C 14.656854 118 16 116.656854 16 115C 16 113.343146 14.656854 112 13 112C 11.343146 112 10 113.343146 10 115"></path></g></g></g><g id="g-root-cp_5_column-5_4j75uj1s6eept-fill" data-item-order="-398118" transform="translate(401, 149)"><g id="cp_5_column-5_4j75uj1s6eept-fill-merged" stroke="none" fill="#ffe711" fill-opacity="1"><g><path d="M10 13C10 14.657 11.343 16 13 16C14.657 16 16 14.657 16 13C16 11.343 14.657 10 13 10C11.343 10 10 11.343 10 13"></path></g></g><g id="cp_5_column-5_4j75uj1s6eept-fill-merged" stroke="none" fill="#ffe711" fill-opacity="1"><g><path d="M10 115C10 116.657 11.343 118 13 118C14.657 118 16 116.657 16 115C16 113.343 14.657 112 13 112C11.343 112 10 113.343 10 115"></path></g></g></g><g id="g-root-cp_5_column-5_4j75uj1s6eept-stroke" data-item-order="-398118" transform="translate(401, 149)"><g id="cp_5_column-5_4j75uj1s6eept-stroke" fill="none" stroke-linecap="round" stroke-linejoin="round" stroke-miterlimit="4" stroke="#2c2c2c" stroke-width="2" stroke-opacity="1"><g><path d="M 10 13C 10 14.656854 11.343146 16 13 16C 14.656854 16 16 14.656854 16 13C 16 11.343146 14.656854 10 13 10C 11.343146 10 10 11.343146 10 13"></path></g></g><g id="cp_5_column-5_4j75uj1s6eept-stroke" fill="none" stroke-linecap="round" stroke-linejoin="round" stroke-miterlimit="4" stroke="#2c2c2c" stroke-width="2" stroke-opacity="1"><g><path d="M 13 16L 13 112"></path></g></g><g id="cp_5_column-5_4j75uj1s6eept-stroke" fill="none" stroke-linecap="round" stroke-linejoin="round" stroke-miterlimit="4" stroke="#2c2c2c" stroke-width="2" stroke-opacity="1"><g><path d="M 10 115C 10 116.656854 11.343146 118 13 118C 14.656854 118 16 116.656854 16 115C 16 113.343146 14.656854 112 13 112C 11.343146 112 10 113.343146 10 115"></path></g></g></g><g id="g-root-cp_7_column-7_4j75uj1s6eepu-fill" data-item-order="-398102" transform="translate(581, 131)"><g id="cp_7_column-7_4j75uj1s6eepu-fill-merged" stroke="none" fill="#fb6762" fill-opacity="1"><g><path d="M10 13C10 14.657 11.343 16 13 16C14.657 16 16 14.657 16 13C16 11.343 14.657 10 13 10C11.343 10 10 11.343 10 13"></path></g></g><g id="cp_7_column-7_4j75uj1s6eepu-fill-merged" stroke="none" fill="#fb6762" fill-opacity="1"><g><path d="M10 133C10 134.657 11.343 136 13 136C14.657 136 16 134.657 16 133C16 131.343 14.657 130 13 130C11.343 130 10 131.343 10 133"></path></g></g></g><g id="g-root-cp_7_column-7_4j75uj1s6eepu-stroke" data-item-order="-398102" transform="translate(581, 131)"><g id="cp_7_column-7_4j75uj1s6eepu-stroke" fill="none" stroke-linecap="round" stroke-linejoin="round" stroke-miterlimit="4" stroke="#2c2c2c" stroke-width="2" stroke-opacity="1"><g><path d="M 10 13C 10 14.656854 11.343146 16 13 16C 14.656854 16 16 14.656854 16 13C 16 11.343146 14.656854 10 13 10C 11.343146 10 10 11.343146 10 13"></path></g></g><g id="cp_7_column-7_4j75uj1s6eepu-stroke" fill="none" stroke-linecap="round" stroke-linejoin="round" stroke-miterlimit="4" stroke="#2c2c2c" stroke-width="2" stroke-opacity="1"><g><path d="M 13 16L 13 130"></path></g></g><g id="cp_7_column-7_4j75uj1s6eepu-stroke" fill="none" stroke-linecap="round" stroke-linejoin="round" stroke-miterlimit="4" stroke="#2c2c2c" stroke-width="2" stroke-opacity="1"><g><path d="M 10 133C 10 134.656854 11.343146 136 13 136C 14.656854 136 16 134.656854 16 133C 16 131.343146 14.656854 130 13 130C 11.343146 130 10 131.343146 10 133"></path></g></g></g><g id="g-root-cp_1_g-1_1uoo7kr1s6efbf-fill" data-item-order="-398084" transform="translate(44, 266)"><g id="cp_1_g-1_1uoo7kr1s6efbf-fill-merged" stroke="none" fill="#4f91fc" fill-opacity="1"><g><path d="M76 10 H10L28 46L10 82 H76L94 46L76 10"></path></g></g></g><g id="g-root-cp_1_g-1_1uoo7kr1s6efbf-stroke" data-item-order="-398084" transform="translate(44, 266)"><g id="cp_1_g-1_1uoo7kr1s6efbf-stroke" fill="none" stroke-linecap="round" stroke-linejoin="round" stroke-miterlimit="4" stroke="#2c2c2c" stroke-width="2" stroke-opacity="1"><g><path d="M 76 10L 10 10L 28 46L 10 82L 76 82L 94 46L 76 10Z"></path></g></g></g><g id="g-root-cp_2_g-2_1uoo7kr1s6efbg-fill" data-item-order="-398076" transform="translate(134, 266)"><g id="cp_2_g-2_1uoo7kr1s6efbg-fill-merged" stroke="none" fill="#1ac3fb" fill-opacity="1"><g><path d="M76 10 H10L28 46L10 82 H76L94 46L76 10"></path></g></g></g><g id="g-root-cp_2_g-2_1uoo7kr1s6efbg-stroke" data-item-order="-398076" transform="translate(134, 266)"><g id="cp_2_g-2_1uoo7kr1s6efbg-stroke" fill="none" stroke-linecap="round" stroke-linejoin="round" stroke-miterlimit="4" stroke="#2c2c2c" stroke-width="2" stroke-opacity="1"><g><path d="M 76 10L 10 10L 28 46L 10 82L 76 82L 94 46L 76 10Z"></path></g></g></g><g id="g-root-cp_3_g-3_1q8upgb1s6eg3p-fill" data-item-order="-398070" transform="translate(224, 266)"><g id="cp_3_g-3_1q8upgb1s6eg3p-fill-merged" stroke="none" fill="#43dd93" fill-opacity="1"><g><path d="M76 10 H10L28 46L10 82 H76L94 46L76 10"></path></g></g></g><g id="g-root-cp_3_g-3_1q8upgb1s6eg3p-stroke" data-item-order="-398070" transform="translate(224, 266)"><g id="cp_3_g-3_1q8upgb1s6eg3p-stroke" fill="none" stroke-linecap="round" stroke-linejoin="round" stroke-miterlimit="4" stroke="#2c2c2c" stroke-width="2" stroke-opacity="1"><g><path d="M 76 10L 10 10L 28 46L 10 82L 76 82L 94 46L 76 10Z"></path></g></g></g><g id="g-root-cp_4_g-4_1q8upgb1s6eg3q-fill" data-item-order="-398064" transform="translate(314, 266)"><g id="cp_4_g-4_1q8upgb1s6eg3q-fill-merged" stroke="none" fill="#a6da37" fill-opacity="1"><g><path d="M76 10 H10L28 46L10 82 H76L94 46L76 10"></path></g></g></g><g id="g-root-cp_4_g-4_1q8upgb1s6eg3q-stroke" data-item-order="-398064" transform="translate(314, 266)"><g id="cp_4_g-4_1q8upgb1s6eg3q-stroke" fill="none" stroke-linecap="round" stroke-linejoin="round" stroke-miterlimit="4" stroke="#2c2c2c" stroke-width="2" stroke-opacity="1"><g><path d="M 76 10L 10 10L 28 46L 10 82L 76 82L 94 46L 76 10Z"></path></g></g></g><g id="g-root-cp_5_g-5_1hdu6aj1s6edqn-fill" data-item-order="-398058" transform="translate(404, 266)"><g id="cp_5_g-5_1hdu6aj1s6edqn-fill-merged" stroke="none" fill="#ffe711" fill-opacity="1"><g><path d="M76 10 H10L28 46L10 82 H76L94 46L76 10"></path></g></g></g><g id="g-root-cp_5_g-5_1hdu6aj1s6edqn-stroke" data-item-order="-398058" transform="translate(404, 266)"><g id="cp_5_g-5_1hdu6aj1s6edqn-stroke" fill="none" stroke-linecap="round" stroke-linejoin="round" stroke-miterlimit="4" stroke="#2c2c2c" stroke-width="2" stroke-opacity="1"><g><path d="M 76 10L 10 10L 28 46L 10 82L 76 82L 94 46L 76 10Z"></path></g></g></g><g id="g-root-cp_6_g-6_1ltnoez1s6edq8-fill" data-item-order="-398052" transform="translate(494, 266)"><g id="cp_6_g-6_1ltnoez1s6edq8-fill-merged" stroke="none" fill="#f79438" fill-opacity="1"><g><path d="M76 10 H10L28 46L10 82 H76L94 46L76 10"></path></g></g></g><g id="g-root-cp_6_g-6_1ltnoez1s6edq8-stroke" data-item-order="-398052" transform="translate(494, 266)"><g id="cp_6_g-6_1ltnoez1s6edq8-stroke" fill="none" stroke-linecap="round" stroke-linejoin="round" stroke-miterlimit="4" stroke="#2c2c2c" stroke-width="2" stroke-opacity="1"><g><path d="M 76 10L 10 10L 28 46L 10 82L 76 82L 94 46L 76 10Z"></path></g></g></g><g id="g-root-cp_7_g-7_1cy0o631s6eeix-fill" data-item-order="-398046" transform="translate(584, 266)"><g id="cp_7_g-7_1cy0o631s6eeix-fill-merged" stroke="none" fill="#fb6762" fill-opacity="1"><g><path d="M76 10 H10L28 46L10 82 H76L94 46L76 10"></path></g></g></g><g id="g-root-cp_7_g-7_1cy0o631s6eeix-stroke" data-item-order="-398046" transform="translate(584, 266)"><g id="cp_7_g-7_1cy0o631s6eeix-stroke" fill="none" stroke-linecap="round" stroke-linejoin="round" stroke-miterlimit="4" stroke="#2c2c2c" stroke-width="2" stroke-opacity="1"><g><path d="M 76 10L 10 10L 28 46L 10 82L 76 82L 94 46L 76 10Z"></path></g></g></g><g id="g-root-cp_8_g-8_1cy0o631s6eeiy-fill" data-item-order="-398040" transform="translate(674, 266)"><g id="cp_8_g-8_1cy0o631s6eeiy-fill-merged" stroke="none" fill="#f366bb" fill-opacity="1"><g><path d="M76 10 H10L28 46L10 82 H76L94 46L76 10"></path></g></g></g><g id="g-root-cp_8_g-8_1cy0o631s6eeiy-stroke" data-item-order="-398040" transform="translate(674, 266)"><g id="cp_8_g-8_1cy0o631s6eeiy-stroke" fill="none" stroke-linecap="round" stroke-linejoin="round" stroke-miterlimit="4" stroke="#2c2c2c" stroke-width="2" stroke-opacity="1"><g><path d="M 76 10L 10 10L 28 46L 10 82L 76 82L 94 46L 76 10Z"></path></g></g></g><g id="g-root-cp_2_column-2_18i761n1s6efb7-fill" data-item-order="-398032" transform="translate(131, 347)"><g id="cp_2_column-2_18i761n1s6efb7-fill-merged" stroke="none" fill="#1ac3fb" fill-opacity="1"><g><path d="M10 13C10 14.657 11.343 16 13 16C14.657 16 16 14.657 16 13C16 11.343 14.657 10 13 10C11.343 10 10 11.343 10 13"></path></g></g><g id="cp_2_column-2_18i761n1s6efb7-fill-merged" stroke="none" fill="#1ac3fb" fill-opacity="1"><g><path d="M10 151C10 152.657 11.343 154 13 154C14.657 154 16 152.657 16 151C16 149.343 14.657 148 13 148C11.343 148 10 149.343 10 151"></path></g></g></g><g id="g-root-cp_2_column-2_18i761n1s6efb7-stroke" data-item-order="-398032" transform="translate(131, 347)"><g id="cp_2_column-2_18i761n1s6efb7-stroke" fill="none" stroke-linecap="round" stroke-linejoin="round" stroke-miterlimit="4" stroke="#2c2c2c" stroke-width="2" stroke-opacity="1"><g><path d="M 10 13C 10 14.656854 11.343146 16 13 16C 14.656854 16 16 14.656854 16 13C 16 11.343146 14.656854 10 13 10C 11.343146 10 10 11.343146 10 13"></path></g></g><g id="cp_2_column-2_18i761n1s6efb7-stroke" fill="none" stroke-linecap="round" stroke-linejoin="round" stroke-miterlimit="4" stroke="#2c2c2c" stroke-width="2" stroke-opacity="1"><g><path d="M 13 16L 13 148"></path></g></g><g id="cp_2_column-2_18i761n1s6efb7-stroke" fill="none" stroke-linecap="round" stroke-linejoin="round" stroke-miterlimit="4" stroke="#2c2c2c" stroke-width="2" stroke-opacity="1"><g><path d="M 10 151C 10 152.656854 11.343146 154 13 154C 14.656854 154 16 152.656854 16 151C 16 149.343146 14.656854 148 13 148C 11.343146 148 10 149.343146 10 151"></path></g></g></g><g id="g-root-cp_4_column-4_18i761n1s6efb8-fill" data-item-order="-398016" transform="translate(311, 347)"><g id="cp_4_column-4_18i761n1s6efb8-fill-merged" stroke="none" fill="#a6da37" fill-opacity="1"><g><path d="M10 13C10 14.657 11.343 16 13 16C14.657 16 16 14.657 16 13C16 11.343 14.657 10 13 10C11.343 10 10 11.343 10 13"></path></g></g><g id="cp_4_column-4_18i761n1s6efb8-fill-merged" stroke="none" fill="#a6da37" fill-opacity="1"><g><path d="M10 133C10 134.657 11.343 136 13 136C14.657 136 16 134.657 16 133C16 131.343 14.657 130 13 130C11.343 130 10 131.343 10 133"></path></g></g></g><g id="g-root-cp_4_column-4_18i761n1s6efb8-stroke" data-item-order="-398016" transform="translate(311, 347)"><g id="cp_4_column-4_18i761n1s6efb8-stroke" fill="none" stroke-linecap="round" stroke-linejoin="round" stroke-miterlimit="4" stroke="#2c2c2c" stroke-width="2" stroke-opacity="1"><g><path d="M 10 13C 10 14.656854 11.343146 16 13 16C 14.656854 16 16 14.656854 16 13C 16 11.343146 14.656854 10 13 10C 11.343146 10 10 11.343146 10 13"></path></g></g><g id="cp_4_column-4_18i761n1s6efb8-stroke" fill="none" stroke-linecap="round" stroke-linejoin="round" stroke-miterlimit="4" stroke="#2c2c2c" stroke-width="2" stroke-opacity="1"><g><path d="M 13 16L 13 130"></path></g></g><g id="cp_4_column-4_18i761n1s6efb8-stroke" fill="none" stroke-linecap="round" stroke-linejoin="round" stroke-miterlimit="4" stroke="#2c2c2c" stroke-width="2" stroke-opacity="1"><g><path d="M 10 133C 10 134.656854 11.343146 136 13 136C 14.656854 136 16 134.656854 16 133C 16 131.343146 14.656854 130 13 130C 11.343146 130 10 131.343146 10 133"></path></g></g></g><g id="g-root-cp_6_column-6_zmk5sr1s6eg3x-fill" data-item-order="-398000" transform="translate(491, 347)"><g id="cp_6_column-6_zmk5sr1s6eg3x-fill-merged" stroke="none" fill="#f79438" fill-opacity="1"><g><path d="M10 13C10 14.657 11.343 16 13 16C14.657 16 16 14.657 16 13C16 11.343 14.657 10 13 10C11.343 10 10 11.343 10 13"></path></g></g><g id="cp_6_column-6_zmk5sr1s6eg3x-fill-merged" stroke="none" fill="#f79438" fill-opacity="1"><g><path d="M10 115C10 116.657 11.343 118 13 118C14.657 118 16 116.657 16 115C16 113.343 14.657 112 13 112C11.343 112 10 113.343 10 115"></path></g></g></g><g id="g-root-cp_6_column-6_zmk5sr1s6eg3x-stroke" data-item-order="-398000" transform="translate(491, 347)"><g id="cp_6_column-6_zmk5sr1s6eg3x-stroke" fill="none" stroke-linecap="round" stroke-linejoin="round" stroke-miterlimit="4" stroke="#2c2c2c" stroke-width="2" stroke-opacity="1"><g><path d="M 10 13C 10 14.656854 11.343146 16 13 16C 14.656854 16 16 14.656854 16 13C 16 11.343146 14.656854 10 13 10C 11.343146 10 10 11.343146 10 13"></path></g></g><g id="cp_6_column-6_zmk5sr1s6eg3x-stroke" fill="none" stroke-linecap="round" stroke-linejoin="round" stroke-miterlimit="4" stroke="#2c2c2c" stroke-width="2" stroke-opacity="1"><g><path d="M 13 16L 13 112"></path></g></g><g id="cp_6_column-6_zmk5sr1s6eg3x-stroke" fill="none" stroke-linecap="round" stroke-linejoin="round" stroke-miterlimit="4" stroke="#2c2c2c" stroke-width="2" stroke-opacity="1"><g><path d="M 10 115C 10 116.656854 11.343146 118 13 118C 14.656854 118 16 116.656854 16 115C 16 113.343146 14.656854 112 13 112C 11.343146 112 10 113.343146 10 115"></path></g></g></g><g id="g-root-cp_8_column-8_v7d4rf1s6edqe-fill" data-item-order="-397984" transform="translate(671, 347)"><g id="cp_8_column-8_v7d4rf1s6edqe-fill-merged" stroke="none" fill="#f366bb" fill-opacity="1"><g><path d="M10 13C10 14.657 11.343 16 13 16C14.657 16 16 14.657 16 13C16 11.343 14.657 10 13 10C11.343 10 10 11.343 10 13"></path></g></g><g id="cp_8_column-8_v7d4rf1s6edqe-fill-merged" stroke="none" fill="#f366bb" fill-opacity="1"><g><path d="M10 133C10 134.657 11.343 136 13 136C14.657 136 16 134.657 16 133C16 131.343 14.657 130 13 130C11.343 130 10 131.343 10 133"></path></g></g></g><g id="g-root-cp_8_column-8_v7d4rf1s6edqe-stroke" data-item-order="-397984" transform="translate(671, 347)"><g id="cp_8_column-8_v7d4rf1s6edqe-stroke" fill="none" stroke-linecap="round" stroke-linejoin="round" stroke-miterlimit="4" stroke="#2c2c2c" stroke-width="2" stroke-opacity="1"><g><path d="M 10 13C 10 14.656854 11.343146 16 13 16C 14.656854 16 16 14.656854 16 13C 16 11.343146 14.656854 10 13 10C 11.343146 10 10 11.343146 10 13"></path></g></g><g id="cp_8_column-8_v7d4rf1s6edqe-stroke" fill="none" stroke-linecap="round" stroke-linejoin="round" stroke-miterlimit="4" stroke="#2c2c2c" stroke-width="2" stroke-opacity="1"><g><path d="M 13 16L 13 130"></path></g></g><g id="cp_8_column-8_v7d4rf1s6edqe-stroke" fill="none" stroke-linecap="round" stroke-linejoin="round" stroke-miterlimit="4" stroke="#2c2c2c" stroke-width="2" stroke-opacity="1"><g><path d="M 10 133C 10 134.656854 11.343146 136 13 136C 14.656854 136 16 134.656854 16 133C 16 131.343146 14.656854 130 13 130C 11.343146 130 10 131.343146 10 133"></path></g></g></g><g id="g-root-tx_mdulo7ge_mdljrv1s6edjj-fill" data-item-order="0" transform="translate(596, 170)"><g id="tx_mdulo7ge_mdljrv1s6edjj-fill-merged" stroke="none" fill="#f4f4f4" fill-opacity="1"><g><text style="font: 15px Roboto, sans-serif; white-space: pre;" transform="translate(10, 46)" font-size="15px" font-family="Roboto, sans-serif"><tspan x="2" y="-18" dominant-baseline="ideographic">Módulo 7: Gestión </tspan><tspan x="2" y="0" dominant-baseline="ideographic">de Incidentes de </tspan><tspan x="2" y="18" dominant-baseline="ideographic">Seguridad de la </tspan><tspan x="2" y="36" dominant-baseline="ideographic">Información</tspan></text></g></g></g><g id="g-root-tx_mdulo7ge_mdljrv1s6edjj-stroke" data-item-order="0" transform="translate(596, 170)"></g><g id="g-root-tx_mdulo5us_18k2laz1s6eebp-fill" data-item-order="0" transform="translate(416, 188)"><g id="tx_mdulo5us_18k2laz1s6eebp-fill-merged" stroke="none" fill="#f4f4f4" fill-opacity="1"><g><text style="font: 15px Roboto, sans-serif; white-space: pre;" transform="translate(10, 37)" font-size="15px" font-family="Roboto, sans-serif"><tspan x="2" y="-9" dominant-baseline="ideographic">Módulo 5: Uso </tspan><tspan x="2" y="9" dominant-baseline="ideographic">Seguro de Redes y </tspan><tspan x="2" y="27" dominant-baseline="ideographic">Comunicaciones</tspan></text></g></g></g><g id="g-root-tx_mdulo5us_18k2laz1s6eebp-stroke" data-item-order="0" transform="translate(416, 188)"></g><g id="g-root-tx_mdulo3in_1luwml71s6efwj-fill" data-item-order="0" transform="translate(236, 188)"><g id="tx_mdulo3in_1luwml71s6efwj-fill-merged" stroke="none" fill="#f4f4f4" fill-opacity="1"><g><text style="font: 15px Roboto, sans-serif; white-space: pre;" transform="translate(10, 37)" font-size="15px" font-family="Roboto, sans-serif"><tspan x="2" y="-9" dominant-baseline="ideographic">Módulo 3: </tspan><tspan x="2" y="9" dominant-baseline="ideographic">Inteligencia Artificial </tspan><tspan x="2" y="27" dominant-baseline="ideographic">y Ciberseguridad</tspan></text></g></g></g><g id="g-root-tx_mdulo3in_1luwml71s6efwj-stroke" data-item-order="0" transform="translate(236, 188)"></g><g id="g-root-tx_mdulo1fu_dg349n1s6eg3l-fill" data-item-order="0" transform="translate(56, 152)"><g id="tx_mdulo1fu_dg349n1s6eg3l-fill-merged" stroke="none" fill="#f4f4f4" fill-opacity="1"><g><text style="font: 15px Roboto, sans-serif; white-space: pre;" transform="translate(10, 55)" font-size="15px" font-family="Roboto, sans-serif"><tspan x="2" y="-27" dominant-baseline="ideographic">Módulo 1: </tspan><tspan x="2" y="-9" dominant-baseline="ideographic">Fundamentos de la </tspan><tspan x="2" y="9" dominant-baseline="ideographic">Seguridad de la </tspan><tspan x="2" y="27" dominant-baseline="ideographic">Información en la </tspan><tspan x="2" y="45" dominant-baseline="ideographic">CGR</tspan></text></g></g></g><g id="g-root-tx_mdulo1fu_dg349n1s6eg3l-stroke" data-item-order="0" transform="translate(56, 152)"></g><g id="g-root-tx_julio_1czw3ff1s6edjg-fill" data-item-order="0" transform="translate(416, 152)"><g id="tx_julio_1czw3ff1s6edjg-fill-merged" stroke="none" fill="#ffe711" fill-opacity="1"><g><text style="font: bold 20px Roboto, sans-serif; white-space: pre;" transform="translate(10, 22)" font-weight="bold" font-size="20px" font-family="Roboto, sans-serif"><tspan x="2" y="12" dominant-baseline="ideographic">Julio</tspan></text></g></g></g><g id="g-root-tx_julio_1czw3ff1s6edjg-stroke" data-item-order="0" transform="translate(416, 152)"></g><g id="g-root-tx_setiembr_v8m2xn1s6efwm-fill" data-item-order="0" transform="translate(596, 134)"><g id="tx_setiembr_v8m2xn1s6efwm-fill-merged" stroke="none" fill="#fb6762" fill-opacity="1"><g><text style="font: bold 20px Roboto, sans-serif; white-space: pre;" transform="translate(10, 22)" font-weight="bold" font-size="20px" font-family="Roboto, sans-serif"><tspan x="2" y="12" dominant-baseline="ideographic">Setiembre</tspan></text></g></g></g><g id="g-root-tx_setiembr_v8m2xn1s6efwm-stroke" data-item-order="0" transform="translate(596, 134)"></g><g id="g-root-tx_mayo_1qaq4pn1s6ef4a-fill" data-item-order="0" transform="translate(236, 152)"><g id="tx_mayo_1qaq4pn1s6ef4a-fill-merged" stroke="none" fill="#43dd93" fill-opacity="1"><g><text style="font: bold 20px Roboto, sans-serif; white-space: pre;" transform="translate(10, 22)" font-weight="bold" font-size="20px" font-family="Roboto, sans-serif"><tspan x="2" y="12" dominant-baseline="ideographic">Mayo</tspan></text></g></g></g><g id="g-root-tx_mayo_1qaq4pn1s6ef4a-stroke" data-item-order="0" transform="translate(236, 152)"></g><g id="g-root-tx_marzo_hvwme31s6efbc-fill" data-item-order="0" transform="translate(56, 116)"><g id="tx_marzo_hvwme31s6efbc-fill-merged" stroke="none" fill="#4f91fc" fill-opacity="1"><g><text style="font: bold 20px Roboto, sans-serif; white-space: pre;" transform="translate(10, 22)" font-weight="bold" font-size="20px" font-family="Roboto, sans-serif"><tspan x="2" y="12" dominant-baseline="ideographic">Marzo</tspan></text></g></g></g><g id="g-root-tx_marzo_hvwme31s6efbc-stroke" data-item-order="0" transform="translate(56, 116)"></g><g id="g-root-tx_cronogra_mbq4ij1s6eej3-fill" data-item-order="0" transform="translate(126.2890625, 38.000030517578125)"><g id="tx_cronogra_mbq4ij1s6eej3-fill-merged" stroke="none" fill="#f4f4f4" fill-opacity="1"><g><text style="font: bold 25px Roboto, sans-serif; white-space: pre;" transform="translate(317.7109375, 25)" font-weight="bold" font-size="25px" font-family="Roboto, sans-serif"><tspan x="-305.71" y="15" dominant-baseline="ideographic">Cronograma de Seguridad de la Información en la CGR</tspan></text></g></g></g><g id="g-root-tx_cronogra_mbq4ij1s6eej3-stroke" data-item-order="0" transform="translate(126.2890625, 38.000030517578125)"></g><g id="g-root-tx_abril_hxs1nf1s6eebs-fill" data-item-order="0" transform="translate(146, 362)"><g id="tx_abril_hxs1nf1s6eebs-fill-merged" stroke="none" fill="#1ac3fb" fill-opacity="1"><g><text style="font: bold 20px Roboto, sans-serif; white-space: pre;" transform="translate(10, 22)" font-weight="bold" font-size="20px" font-family="Roboto, sans-serif"><tspan x="2" y="12" dominant-baseline="ideographic">Abril</tspan></text></g></g></g><g id="g-root-tx_abril_hxs1nf1s6eebs-stroke" data-item-order="0" transform="translate(146, 362)"></g><g id="g-root-tx_mdulo8as_18ly0kb1s6edc7-fill" data-item-order="0" transform="translate(686, 398)"><g id="tx_mdulo8as_18ly0kb1s6edc7-fill-merged" stroke="none" fill="#f4f4f4" fill-opacity="1"><g><text style="font: 15px Roboto, sans-serif; white-space: pre;" transform="translate(10, 46)" font-size="15px" font-family="Roboto, sans-serif"><tspan x="2" y="-18" dominant-baseline="ideographic">Módulo 8: Aspectos </tspan><tspan x="2" y="0" dominant-baseline="ideographic">Avanzados y </tspan><tspan x="2" y="18" dominant-baseline="ideographic">Responsabilidad del </tspan><tspan x="2" y="36" dominant-baseline="ideographic">Personal</tspan></text></g></g></g><g id="g-root-tx_mdulo8as_18ly0kb1s6edc7-stroke" data-item-order="0" transform="translate(686, 398)"></g><g id="g-root-tx_junio_4mbja31s6efwq-fill" data-item-order="0" transform="translate(326, 362)"><g id="tx_junio_4mbja31s6efwq-fill-merged" stroke="none" fill="#a6da37" fill-opacity="1"><g><text style="font: bold 20px Roboto, sans-serif; white-space: pre;" transform="translate(10, 22)" font-weight="bold" font-size="20px" font-family="Roboto, sans-serif"><tspan x="2" y="12" dominant-baseline="ideographic">Junio</tspan></text></g></g></g><g id="g-root-tx_junio_4mbja31s6efwq-stroke" data-item-order="0" transform="translate(326, 362)"></g><g id="g-root-tx_agosto_1lws1uj1s6eex0-fill" data-item-order="0" transform="translate(506, 362)"><g id="tx_agosto_1lws1uj1s6eex0-fill-merged" stroke="none" fill="#f79438" fill-opacity="1"><g><text style="font: bold 20px Roboto, sans-serif; white-space: pre;" transform="translate(10, 22)" font-weight="bold" font-size="20px" font-family="Roboto, sans-serif"><tspan x="2" y="12" dominant-baseline="ideographic">Agosto</tspan></text></g></g></g><g id="g-root-tx_agosto_1lws1uj1s6eex0-stroke" data-item-order="0" transform="translate(506, 362)"></g><g id="g-root-tx_octubre_1d151ln1s6efpq-fill" data-item-order="0" transform="translate(686, 362)"><g id="tx_octubre_1d151ln1s6efpq-fill-merged" stroke="none" fill="#f366bb" fill-opacity="1"><g><text style="font: bold 20px Roboto, sans-serif; white-space: pre;" transform="translate(10, 22)" font-weight="bold" font-size="20px" font-family="Roboto, sans-serif"><tspan x="2" y="12" dominant-baseline="ideographic">Octubre</tspan></text></g></g></g><g id="g-root-tx_octubre_1d151ln1s6efpq-stroke" data-item-order="0" transform="translate(686, 362)"></g><g id="g-root-tx_mdulo6te_1lws1uj1s6eex1-fill" data-item-order="0" transform="translate(506, 398)"><g id="tx_mdulo6te_1lws1uj1s6eex1-fill-merged" stroke="none" fill="#f4f4f4" fill-opacity="1"><g><text style="font: 15px Roboto, sans-serif; white-space: pre;" transform="translate(10, 37)" font-size="15px" font-family="Roboto, sans-serif"><tspan x="2" y="-9" dominant-baseline="ideographic">Módulo 6: </tspan><tspan x="2" y="9" dominant-baseline="ideographic">Teletrabajo y </tspan><tspan x="2" y="27" dominant-baseline="ideographic">Seguridad Física</tspan></text></g></g></g><g id="g-root-tx_mdulo6te_1lws1uj1s6eex1-stroke" data-item-order="0" transform="translate(506, 398)"></g><g id="g-root-tx_mdulo2pr_dhyjiz1s6ef41-fill" data-item-order="0" transform="translate(146, 398)"><g id="tx_mdulo2pr_dhyjiz1s6ef41-fill-merged" stroke="none" fill="#f4f4f4" fill-opacity="1"><g><text style="font: 15px Roboto, sans-serif; white-space: pre;" transform="translate(10, 55)" font-size="15px" font-family="Roboto, sans-serif"><tspan x="2" y="-27" dominant-baseline="ideographic">Módulo 2: </tspan><tspan x="2" y="-9" dominant-baseline="ideographic">Protección de Datos </tspan><tspan x="2" y="9" dominant-baseline="ideographic">Personales y </tspan><tspan x="2" y="27" dominant-baseline="ideographic">Clasificación de la </tspan><tspan x="2" y="45" dominant-baseline="ideographic">Información</tspan></text></g></g></g><g id="g-root-tx_mdulo2pr_dhyjiz1s6ef41-stroke" data-item-order="0" transform="translate(146, 398)"></g><g id="g-root-tx_mdulo4am_74i8r1s6edj7-fill" data-item-order="0" transform="translate(326, 398)"><g id="tx_mdulo4am_74i8r1s6edj7-fill-merged" stroke="none" fill="#f4f4f4" fill-opacity="1"><g><text style="font: 15px Roboto, sans-serif; white-space: pre;" transform="translate(10, 46)" font-size="15px" font-family="Roboto, sans-serif"><tspan x="2" y="-18" dominant-baseline="ideographic">Módulo 4: </tspan><tspan x="2" y="0" dominant-baseline="ideographic">Amenazas Digitales </tspan><tspan x="2" y="18" dominant-baseline="ideographic">y Protección contra </tspan><tspan x="2" y="36" dominant-baseline="ideographic">Malware</tspan></text></g></g></g><g id="g-root-tx_mdulo4am_74i8r1s6edj7-stroke" data-item-order="0" transform="translate(326, 398)"></g></g></g><path id="wv3m0rf1tkb0g5" d="M65.283 12.757a.35.35 0 0 0 .584.157l5.203-5.141-6.183 3.523.396 1.461zm-2.216-11.7a.35.35 0 0 0-.522.305v3.111l3.276-1.868-2.754-1.548zm3.728 2.105l-4.25 2.421v2.445l6.391-3.644-2.141-1.222zm4.708 3.303a.35.35 0 0 0 0-.609l-1.592-.9-7.365 4.199v1.782a.35.35 0 0 0 .523.305l8.435-4.777z M44.542 2.513c0-.433.355-.783.792-.783s.792.35.792.783-.355.783-.792.783-.792-.35-.792-.783zm59.171 0c0-.433.355-.783.792-.783s.792.35.792.783-.355.783-.792.783-.792-.35-.792-.783zm-85.951 7.636h-1.27v-.487c-.276.201-.864.609-1.881.609-1.202 0-2.274-.794-2.137-2.078.118-1.106 1.153-1.584 1.848-1.727l2.17-.345c0-.539-.29-.956-1.064-1.006s-1.21.305-1.571 1.017l-1.124-.605c1.218-2.631 5.029-1.764 5.029.414v4.207zm-1.27-2.86c.006.396-.062 1.112-.819 1.59-.587.37-1.841.299-1.903-.395-.049-.555.461-.791.906-.898l1.816-.297zm72.662 2.86h-1.27v-.487c-.276.201-.864.609-1.881.609-1.202 0-2.274-.794-2.137-2.078.118-1.106 1.153-1.584 1.848-1.727l2.17-.345c0-.539-.29-.956-1.064-1.006s-1.21.305-1.571 1.017l-1.124-.605c1.218-2.631 5.029-1.764 5.029.414v4.207zm-1.27-2.86c.006.396-.062 1.112-.82 1.59-.587.37-1.841.299-1.903-.395-.049-.555.461-.791.906-.898l1.816-.297zM99.096 10.149H97.85v-8.45h1.246v4.895l2.68-2.559h1.738l-2.633 2.535 2.715 3.578h-1.556l-2.077-2.707-.867.844v1.863zm6.053-6.114h-1.255v6.113h1.255V4.035zm-59.2 0h-1.255v6.113h1.255V4.035zm5.584 6.113V1.697h1.255v2.695c.361-.346 1-.485 1.47-.485 1.452 0 2.477 1.082 2.457 2.448v3.792h-1.27v-3.68c0-.408-.214-1.339-1.315-1.339-.968 0-1.342.756-1.342 1.339v3.681h-1.255zm-4.76-4.894V4.039h.621a.45.45 0 0 0 .45-.45v-.855h1.251v1.305h1.309v1.215h-1.309v3.109c0 .293.105.664.648.664.365 0 .531-.035.736-.07v1.137s-.361.113-.857.113c-1.398 0-1.777-1.051-1.777-1.788V5.254h-1.071zM36.528 4.039h-1.394l2.191 6.106h1.125l1.234-3.918 1.238 3.918h1.129l2.188-6.106h-1.383l-1.359 3.93-1.256-3.93h-1.124l-1.242 3.957-1.348-3.957zM26.212 7.141c-.02 1.566 1.187 3.129 3.223 3.129 1.566 0 2.383-.918 2.734-1.719L31.172 8c-.315.399-.801 1.094-1.738 1.094-1.145 0-1.825-.781-1.891-1.52h4.625c.074-.284.148-.995-.03-1.559-.336-1.064-1.221-2.102-2.839-2.102s-3.088 1.152-3.088 3.227zm1.363-.75h3.348c-.055-.43-.566-1.301-1.623-1.301a1.79 1.79 0 0 0-1.725 1.301zm-8.758.75c.038 1.758 1.277 3.133 3.145 3.133 1.074 0 1.723-.477 1.961-.672v.547h1.242V1.703h-1.258v2.888c-.414-.36-1.062-.68-1.93-.68-1.91 0-3.198 1.473-3.16 3.23zm1.309-.08c0 1.119.723 1.978 1.836 1.978a1.88 1.88 0 0 0 1.94-1.904c0-1.371-1.011-1.99-1.972-1.99s-1.805.798-1.805 1.916zm76.683-.028C96.771 5.275 95.532 3.9 93.664 3.9c-1.074 0-1.723.477-1.961.672v-.547h-1.242v8.22h1.258V9.583c.414.36 1.063.68 1.93.68 1.91 0 3.198-1.473 3.16-3.23zm-1.309.08c0-1.119-.723-1.978-1.836-1.978a1.88 1.88 0 0 0-1.94 1.904c0 1.371 1.011 1.99 1.972 1.99S95.5 8.231 95.5 7.113zM106.441 10.173V4.036h1.254v.382c.361-.346 1-.485 1.47-.485 1.452 0 2.477 1.082 2.457 2.448v3.792h-1.27V6.492c0-.408-.214-1.339-1.315-1.339-.969 0-1.342.756-1.342 1.339v3.681h-1.254zm-30.383-.021V1.824h1.084l4.215 5.777V1.824h1.32v8.328h-1.094l-4.207-5.796v5.796h-1.319zM5.24 10.149H4V2.377h1.014l2.664 3.597 2.654-3.592h1.03v7.766h-1.256V4.762L7.678 8.068 5.24 4.742v5.407z" transform="translate(752, 536)" fill="#ababab88" stroke="none"></path></svg>