<?xml version="1.0" encoding="UTF-8"?>
<svg id="Banner_Inicio" data-name="Banner Inicio" xmlns="http://www.w3.org/2000/svg" xmlns:xlink="http://www.w3.org/1999/xlink" viewBox="0 0 484.02 456.17">
  <defs>
    <style>
      .cls-1 {
        fill: #8f032a;
      }

      .cls-2 {
        fill: #10322c;
      }

      .cls-3 {
        fill: #214f4c;
      }

      .cls-4 {
        fill: #f6efe2;
      }

      .cls-5 {
        fill: #235d41;
      }

      .cls-6 {
        fill: #12342f;
      }

      .cls-7 {
        fill: #a0b0a8;
      }

      .cls-8 {
        fill: #93a046;
      }

      .cls-9 {
        fill: #578688;
      }

      .cls-10 {
        fill: #3a5e47;
      }

      .cls-11 {
        fill: #96a25f;
      }

      .cls-12 {
        fill: #416b69;
      }

      .cls-13 {
        fill: #1a5742;
      }

      .cls-14 {
        fill: #1a5743;
      }

      .cls-15 {
        fill: #467372;
      }

      .cls-16 {
        fill: url(#Degradado_sin_nombre_173);
      }

      .cls-17 {
        fill: #3e7341;
      }

      .cls-18 {
        fill: #12372f;
      }

      .cls-19 {
        fill: #839876;
      }

      .cls-20 {
        fill: #4a6c51;
      }

      .cls-21 {
        fill: #649098;
      }

      .cls-22 {
        fill: url(#Degradado_sin_nombre_173-2);
      }

      .cls-23 {
        fill: url(#Degradado_sin_nombre_173-3);
      }

      .cls-24 {
        fill: #18453d;
      }

      .cls-25 {
        fill: #6d9e8b;
      }

      .cls-26 {
        fill: #13322c;
      }

      .cls-27 {
        fill: #e57b3c;
      }
    </style>
    <linearGradient id="Degradado_sin_nombre_173" data-name="Degradado sin nombre 173" x1="-1453.07" y1="326.87" x2="-1344.62" y2="326.87" gradientTransform="translate(-1145.87 479.62) rotate(159.49) scale(1 -1)" gradientUnits="userSpaceOnUse">
      <stop offset="0" stop-color="#36499b"/>
      <stop offset=".21" stop-color="#9fa81a"/>
      <stop offset=".57" stop-color="#0b5a2f"/>
      <stop offset=".93" stop-color="#e57b3c"/>
    </linearGradient>
    <linearGradient id="Degradado_sin_nombre_173-2" data-name="Degradado sin nombre 173" x1="-1441.86" y1="286.77" x2="-1371.08" y2="286.77" xlink:href="#Degradado_sin_nombre_173"/>
    <linearGradient id="Degradado_sin_nombre_173-3" data-name="Degradado sin nombre 173" x1="-1376.04" y1="219.68" x2="-1333.19" y2="219.68" xlink:href="#Degradado_sin_nombre_173"/>
  </defs>
  <path class="cls-19" d="M309.89,105.31c-.98-.01-1.52.77-1.61,2.35l-14.22,21.53c-7.52,10.95-12.44,26.66-9.66,39.89.85,4.03,2.84,4.15,6.47,4.31,13.25-12.25,26.61-25.3,39.22-38.27.1-.11.02-.4-.11-.74l1.36-.48c4.19-3.88,8.24-7.88,12.17-12.02l1.61.27c3.01-2.64,5.9-5.41,8.69-8.3l-.26-1.51c1.58-1.56,2.56-3.53,3.67-5.81,4.97-10.28,7.91-21.39,7.17-32.85-.27-4.17-1.17-7.94-3.41-11.37-3.38-5.18-9.76-2.34-15.08,2.41-10.85,9.7-19.97,20.71-28.53,32.47l-6.84,9.4c-.33-.19-.48-.61-.65-1.27Z"/>
  <path class="cls-2" d="M302.89,92.71c-.57.13-1.12.28-1.64.52s-.99.46-1.32.83c-6.54,7.03-11.69,15.31-16.43,23.62-13.29,25.13-26.63,50.6-36.86,77.06.38-1.01-.28-.42-.88.43l-2.39,9.41c.02,3.51.71,4.63,2.08,3.35l1.37.19,33.88-52.75c-1.52,11.34-1.85,22.66-.98,33.96l1.44,29.3c-1.32,17.85-12.68,28.02-29.98,20.59-1.23-.33-1.66.32-1.21,1.52-1.19,1.51,2.43,3.57,3.64,2.17,5.97,5.03,14.28,5.3,21.74,5.2,10.84-1.69,21.48-1.81,31.94-.35l6.38,2.5c1.39-.14,1.59-.64.73-1.76-5.13-4.68-10.42-9.2-16.47-12.71.37-2.01-1.72-2.46-2.9-.83l-2.22-.86c-3.53.27-7.04.79-10.51,1.57,1.99-1.99,3.43-4.23,4.31-6.74l-.63-1.47c3.08-2.7,4.3-10.11,2.47-13.8,1.35-1.78,2.64-4.77.72-6.22l-.46-2.06c1.96-.22,2.1-5.54.22-6.11l1.03-1.55c.16-2.92-.44-5.64-1.79-8.18l1.22-.64-.44-8.66,42.86-44.2-.37-1.43c.73-1.46-.34-.97-1.46-.22l-39.41,37.88c-1.89-.2-3.08-.57-4.6-1.21-2-12.1-.58-24.08,5.4-34.78,5.49-9.82,11.84-18.62,18.02-28.01.41-.63.53-2.18.51-2.95-.12-4.92-.82-12.48-3.85-13.46-1.08-.35-2.49.18-3.14.86Z"/>
  <path class="cls-21" d="M327.86,172l-.11.69c-10.92,6.54-21.94,13.47-33.05,20.77-2.38,1.53-4.6,3.15-5.77,5.8l-.22,6.11.55,3.4c2.66.59,5.35.88,8.09.86l-7.61,1.42c-.61.65-1.04,1.51-1.28,2.6-.36,4.64-1.07,9.39-2.47,13.8-.29,3.75,5.69,6.72,9.05,7.5.95.17,2.09.36,2.9.83.17-.66.85-1,1.64-1.17,12.18-2.62,27.63-9.5,29.54-21.37.55-3.4-1.01-6.45-4.21-7.6,13.45-5.93,25.73-21.52,24.84-35.48-.16-2.44-2.26-6.11-5.02-5.58-1.22-.59-1.83-.89-1.83-.89-4.05.8-10.87,4.03-14.29,6.41l-.74,1.89Z"/>
  <path class="cls-25" d="M343.5,121.89c-3.94,4.14-8,8.15-12.19,12.04l.12.68-43.92,45.3.66,9.62c-.04,3.21,2.42,4.71,5.36,3.17,11.82-6.21,23.59-12.84,34.32-20.7,5.21-3.07,10.99-6.31,16.86-7.42l-1.54-.66c10.31-9.53,16.9-22.35,18.87-36.04,1.19-8.28-.9-17.76-6.77-15.69-.69.24-1.42.37-1.73.15l-7.01,6.93c-1.22,1.2-1.95,1.62-3.03,2.62Z"/>
  <path class="cls-13" d="M245.75,195.17c.56.19,1.03.37,1.28.28.34-.12.44-.96.56-1.23l6.17-13.86,6.77-14.58,4.54-9.17c.74-1.48,1.31-2.88,2.09-4.45l5.56-11.14,4.3-8.83,6.83-12.55c5.37-9.87,11.45-19,19.03-26.91-.44.03-.55-.34-.33-.77,2.45-11.08-.94-33.92-8.78-35.49-2.04-.41-4.01.89-5.21,2.71-7.99,12.08-15.84,36.54-19.94,51.58l-7.6,27.92-15.28,56.51Z"/>
  <path class="cls-4" d="M199.41,231.76l-.3,1.99c2.55,5.5,5.83,10.18,9.85,14.05-7.4,7.52-16.28,6.94-23.51-.66l-1.57.35c8.37,14,19.28,27.04,32.65,36.36l.52-.44,6.25,3.47c5.82,2.34,12.52,3.41,18.76,3.84,7,.47,19.49.22,26.07-1.68.87-.25,1.51-.96,2.09-1.62,1.38-.73,1.04-1.45-.28-2.13-26.57-3.97-40.18-29.07-35.82-54.89,1.3-1.85,1.31-3.11.04-3.79l-1.65-.16c-8.2,11.46-22.88,12.83-32.26,1.92-1.9-.45-2.18.68-.84,3.39Z"/>
  <path class="cls-17" d="M321.87,287.98l1.17,2.44c6.41,5.55,12.37,11.58,17.88,18.1-.7-.75-.73-.55-.09.61-1.51,1.25,2.6,5.14,4.18,4.06,1.37-.49,2.68.36,3.95,2.54,2.2.77,3.11-.51,2.74-3.84-6.84-23.25-19.38-47.05-37.29-63.39.01.68-.38.75-.79.5-4.09-2.33-8.43-3.27-13.12-3.59-15.74-1.09-28.87,5.39-46.88-2.5-1.09,1.28-.55,2.49,1.63,3.62,17.77,10.31,35.34,20.92,52.7,31.84,4.34,3.82,8.98,7.03,13.93,9.61Z"/>
  <path class="cls-16" d="M216.53,283.85c9.82,6.84,20.18,12.25,31.96,15.64,14.35,4.14,29.09,5.12,43.94,3.29l16.44-2.02,1.75,1.07c9.94-1.07,20.4.33,28.14,7.11l2.06.18c.17-.03.84-.5.62-.82-5.74-7.88-12.04-14.96-19.57-20.33-9.03-6.31-19.33-6.31-29.75-3.78,0,0-7.02.63-21.07,1.9l-.83,1.31c-18.68,3.19-36.74,4.01-53.92-4.91-.16.65.12,1.1.23,1.35Z"/>
  <path class="cls-8" d="M139.07,202.97c.71,2.75,5.9,1.42,6.56-.68l1.56-.14c2.49,1.68,9.98-1.11,12.5-2.75,3.22-2.1,7.63-6.4,10.19-9.23l1.78.56c8.01-3.53,16.6-1.59,23.63,3.17l2.97,1.1c-1.14,1.72,3.08,4.99,4.71,4.4,9.16,8.46,23.34,9.86,35.3,7.57l1.24-1.66c-1.12-1.24-2.85-1.49-4.41-2.23-8.49-4.04-12.06-16.87-26.32-25.07-19.45-11.18-43.14-3.18-56.84,14.75-3.13,4.09-6.83,7.4-11.87,9.22-.65.23-.98.7-1.02,1Z"/>
  <path class="cls-6" d="M308.87,300.76c-3.67,12.74-6.26,25.55-6.12,38.89.09,8.89,1.78,26.55,7.35,27.01,4.52.38,8.39-8.81,10.14-14.64,1.23-.39,1.74-.84,1.52-1.36-.23-11.27-.45-23.72,2.29-34.81.21-.85,12.77,9.8,13.54,11.16,1.51.95,2.03.6,2.04-1.16l1.15-1.21c-.47-2.9-.64-5.81-.51-8.72,3.81,1.71,7.33,3.99,10.56,6.82,2.82.18,2.77-.21,1.68-2.62s-5.02-6.84-7.49-6.94l-4.18-4.06c-8.71-8.46-20.31-9.8-31.95-8.37Z"/>
  <path class="cls-1" d="M158.88,204.48c-3.82.61-7.01,2.11-9.57,4.51-1.94,1.5-2.68,3.01-2.21,4.52,10.19,1.94,22.1,13.03,28.26,21.82l8.52,12.16c3.09,2.45,5.82,5.38,9.99,6.51,5.93,1.6,12.45-.87,16.14-6.33-4.79-4.82-7.39-10.5-10.6-15.91-.7-4.72-3.66-9.36-7.25-13.11-3.27-3.42-6.76-6.79-11.36-8.3.66-2.3-3.18-3.68-5.24-3.33-.52-3.03-6.35-3.21-9.22-3.21.04-2.78-7.22-1.52-7.47.67Z"/>
  <path class="cls-20" d="M345,313.19c2.75,2.67,5.15,5.74,7.6,9.28-4.4-3.04-7.88-6.6-13.32-8.44-.86,4.17.05,8.07.35,11.83l-1.2.83c.61,10.25,1.65,20.45,3.14,30.6-.49,2.44-.13,4.06,1.09,4.87.81.06,1.15.65,1.39,1.62,2.53,10.17,5.61,19.79,11.36,28.51.91,1.38,3.11,4.35,4.9,2.89,1.93-1.58,2.39-5.47,2.36-8.23-.23-25.52-3.84-50.83-10.98-75.06l-1.48,3.17c-1.81-.84-2.65-2.57-2.84-5.02-.66,1.28-1.09,2.05-2.59,1.97l.22,1.19Z"/>
  <path class="cls-14" d="M320.23,352.02c.1-.19.44-.39.72-.38,1.07,10.34,7.04,37.3,13.44,34.86,6.37-2.43,7.91-16.54,8.27-24.35l.22-4.71-.86-4.82-1.15-11.33-1.24-15.44c-.9,2.08-3-2.68-9.71-7.44-2.16-1.53-3.91-3.41-6.74-4.55-2.41,11.33-3.17,22.21-2.8,33.36.06,1.9.35,3.14-.15,4.79Z"/>
  <path class="cls-5" d="M226.77,221.61c1.12,1.33,1.67.92,1.19-.75,3.21.37,6.76-1.4,9.64-2.85,1.56,1.18,2.41.33,1.39-1.28,2.02-.28,2.71-.71,3.85-2.62,2.05-2.07,2.91-4.13,2.6-6.19-1.24.41-.28-1.46-.7-2.68-.13-.38-1-.74-1.38-.67l-3.83.73c-7.22,2.27-14.91,1.51-22.6.02-6.04-1.16-9.59-4.67-13.95-5.93-.26.14-.5.3-.66.52-1.06,1.37,12.23,17.09,15.1,18.93,3.33,2.13,5.63,2.41,9.34,2.77Z"/>
  <path class="cls-18" d="M75.96,224.75c-.59.16-1.48.55-2.33,1.78,4.37,0,8.57-.86,13.16-1.98l41.88-10.24c6.31-1.54,12.41-1.95,18.43-.8,2.08-2.48,3.89-5.02,7.05-6.63l4.74-2.4c-.68-1.28-2.39-1.51-5.16-.68-1.58,0-3.01.59-4.28,1.76l-.39-.76c-21.36,4.82-43.16,9.81-64.22,16.43-2.94.93-6.24,2.03-8.88,3.52Z"/>
  <path class="cls-9" d="M75.96,224.75l40.74-11.01,32.74-8.18c5.29-1.54-1.93-3.74-3.88-2.75-.24.12,1.85.33,1.62-.65-.48.07-1.33-.52-2.22,0-1.95,1.13-3.92,1.19-5.9.82l-54.59,17.25-7.58,3.37c-.58.26-.96.74-.94,1.16Z"/>
  <path class="cls-10" d="M329.97,134.38c.5-.14,1.07-.26,1.46.22l5.77-5.8c2.3-2.31,4.77-4.33,6.3-6.92l-13.53,12.5Z"/>
  <path class="cls-11" d="M245.45,207.92c-1.96,3.06-3.84,6.15-6.46,8.81-1.16,10.09,2.67,17.59,9.68,24.64l1.3-.63c.19-.54.48-.67.96-.27,8.59,4.53,19.97,2.94,26.08-5.03,4.15-5.41,5.71-12.33,5.36-19.04l-1.39-27.12-.53-19.29c-.2-7.31,1.3-13.9,3.23-21.5l-10.34,15.85-27.9,43.59Z"/>
  <path class="cls-22" d="M238.99,216.73c-.46.47-.66.97-1.39,1.28-.51.24-.44.38.15.44-1.37,1.38-5.79,5.91-4.44,7.48.23.27.52.48.83.68.1,1.4-1.08,2.37-1.36,3.91-1.05,5.66-1.17,11.76-.08,17.5l.99,5.24c.87,4.61,4.29,12.06,6.94,15.36l5,6.21c1.1,1.37,3.15,2.65,4.52,3.63l3.37,2.42,9.72,4.38,4.53,1.11c.65.16,2.25-.51,2.45,1.04l11.3-.61,4.58-.5,5.68-.77c4.37-.59,8.37-2.03,14.12-1.55,1.95.16,3.95-.23,5.97.85l9.99,3.16-8.31-6.91c-15.01-12.22-39.93-23.92-57.62-35.59-1.13-.74-2.02-1.43-2.33-2.58l-3.64-2.17c-1.54-.92-2.63-2.81-3.9-4.48l-2.48-3.25c-1.72-2.25-3.15-5.62-3.19-8.51l-.11-7.86c0-.38-.93-.32-1.31.09Z"/>
  <path class="cls-24" d="M327.86,172c-11.4,6.73-22.82,13.34-34.84,19.56-1.02.53-2.79.24-3.55.13-.72-.11-1.18-1.5-1.3-2.15l.76,9.73c8.56-6.56,17.54-12.22,26.73-18.14l14.91-9.6c-1.21-.26-1.98.31-2.71.48Z"/>
  <path class="cls-3" d="M288.45,213.65c.4-.58,1.1-1.35,2.13-1.53l29.27-5.21c-.02-.28.13-.58.17-.68l-10.5,1.26c-6.67.8-13.15,1.23-19.76.27-.54-.56-.88-1.88-1.05-2.41-.04,1.05.23,1.97.13,3.28l-.39,5Z"/>
  <path class="cls-12" d="M295.03,234.95c-2.26-2.56-6.4-3.76-9.05-7.5-1.33,4.19-4.21,7.04-7.81,10.46,6.02-1.54,11.3-2.3,16.86-2.96Z"/>
  <path class="cls-27" d="M180.81,210.35c5.29,3.36,9.63,7.85,13.69,13.12l4.92,8.29-.39-2.95c6.16,7.74,16.87,10.84,25.97,6.05,3.86-2.04,6.21-5.49,9.16-8.25-.26-3.75,4.42-5.66,3.61-8.17-3.27,1.43-6.53,2.23-9.8,2.41-.31.19-.87.68-1.19.75l-1.08-.38c-8.06.89-15.85.16-23.39-2.19-7.02-3.45-13.96-6.82-20.83-10.1l-.66,1.42Z"/>
  <path class="cls-23" d="M175.57,207.02l5.24,3.33c1.32-.61,2.31.49,3.5,1.01,3.43,1.51,6.2,3.42,9.38,5.19,10.36,5.76,21.85,7.72,33.07,5.06-.3-1-.99-.93-2.01-1.12-8.28-1.6-12.57-7.94-17.32-14.73l-4.45-6.36c-1.25-1.79-3.37-2.9-4.71-4.4-3.8-2.36-8.89-1.57-12.71.44-1.51,4.76-4.56,8.39-9.34,10.03l-.66,1.55Z"/>
  <path class="cls-15" d="M147.19,202.15c-.57.19-1.27.02-2.03.99,2.03-.03,3.54.92,5.53,1.47-.45.78-1.04.63-1.24.95l9.44-1.08,4.74-.95c.8-.16,2.09.06,2.73.28l4.49-1.12-3.64-4.03c-1.03-3.21,3.37-6.11,2.68-8.49-3.92,1.98-7.44,4.92-10.87,8.19-3.9,1.65-8.05,3.22-11.82,3.79Z"/>
  <path class="cls-27" d="M227.96,220.85c.49.48,1.37.85,2.24.52l7.55-2.93-.15-.44c-3.07,1.31-6.37,2.38-9.64,2.85Z"/>
  <g>
    <path class="cls-26" d="M169.88,190.17c-3.42,3.97-6.09,7.54-1.59,11.85-1.18.19-1.96.36-1.94,1.78l9.22,3.21c5.38-1.63,9.47-5.26,10.87-10.8,3.99-1.74,7.87-1.4,11.83-1.22-1.76-1.97-3.83-3.17-6.39-4.49-7.04-3.63-15.01-3.86-22-.33Z"/>
    <circle class="cls-7" cx="175.96" cy="194.68" r="1.81"/>
  </g>
</svg>