<?xml version="1.0" encoding="UTF-8"?>
<svg id="Colibrí" xmlns="http://www.w3.org/2000/svg" xmlns:xlink="http://www.w3.org/1999/xlink" viewBox="0 0 459.65 438.76">
  <defs>
    <style>
      .cls-1 {
        fill: #8f032a;
      }

      .cls-2 {
        fill: #10322c;
      }

      .cls-3 {
        fill: #214f4c;
      }

      .cls-4 {
        fill: #f6efe2;
      }

      .cls-5 {
        fill: #235d41;
      }

      .cls-6 {
        fill: #12342f;
      }

      .cls-7 {
        fill: #a0b0a8;
      }

      .cls-8 {
        fill: #93a046;
      }

      .cls-9 {
        fill: #f8ae40;
      }

      .cls-10 {
        fill: #578688;
      }

      .cls-11 {
        fill: #3a5e47;
      }

      .cls-12 {
        fill: #96a25f;
      }

      .cls-13 {
        fill: #4a251e;
      }

      .cls-14 {
        fill: #416b69;
      }

      .cls-15 {
        fill: #1a5742;
      }

      .cls-16 {
        fill: #1a5743;
      }

      .cls-17 {
        fill: #467372;
      }

      .cls-18 {
        fill: url(#Degradado_sin_nombre_173);
      }

      .cls-19 {
        fill: #3e7341;
      }

      .cls-20 {
        fill: #12372f;
      }

      .cls-21 {
        fill: #839876;
      }

      .cls-22 {
        fill: #4a6c51;
      }

      .cls-23 {
        fill: #649098;
      }

      .cls-24 {
        fill: url(#Degradado_sin_nombre_173-2);
      }

      .cls-25 {
        fill: url(#Degradado_sin_nombre_173-3);
      }

      .cls-26 {
        fill: #18453d;
      }

      .cls-27 {
        fill: #6d9e8b;
      }

      .cls-28 {
        fill: #13322c;
      }

      .cls-29 {
        fill: #e57b3c;
      }
    </style>
    <linearGradient id="Degradado_sin_nombre_173" data-name="Degradado sin nombre 173" x1="263.69" y1="143.87" x2="374.55" y2="143.87" gradientTransform="translate(-117.42 77.59) rotate(11.89)" gradientUnits="userSpaceOnUse">
      <stop offset="0" stop-color="#36499b"/>
      <stop offset=".21" stop-color="#9fa81a"/>
      <stop offset=".57" stop-color="#0b5a2f"/>
      <stop offset=".93" stop-color="#e57b3c"/>
    </linearGradient>
    <linearGradient id="Degradado_sin_nombre_173-2" data-name="Degradado sin nombre 173" x1="275.16" y1="102.89" x2="347.5" y2="102.89" xlink:href="#Degradado_sin_nombre_173"/>
    <linearGradient id="Degradado_sin_nombre_173-3" data-name="Degradado sin nombre 173" x1="342.43" y1="34.32" x2="386.22" y2="34.32" xlink:href="#Degradado_sin_nombre_173"/>
  </defs>
  <g>
    <path class="cls-21" d="M104.67,96.48c.99-.17,1.65.54,1.98,2.13l17.67,19.58c9.28,9.91,16.66,25.04,15.87,38.83-.24,4.2-2.23,4.63-5.88,5.35-15.27-10.35-30.76-21.49-45.49-32.67-.12-.09-.08-.4,0-.76l-1.45-.28c-4.82-3.28-9.54-6.7-14.13-10.28l-1.59.52c-3.44-2.21-6.79-4.56-10.06-7.06l.03-1.57c-1.83-1.33-3.13-3.17-4.6-5.31-6.6-9.63-11.27-20.4-12.28-32.1-.37-4.25-.03-8.2,1.7-12.01,2.62-5.75,9.51-3.86,15.61.13,12.45,8.14,23.35,17.87,33.8,28.45l8.35,8.45c.31-.25.39-.69.46-1.38Z"/>
    <path class="cls-2" d="M109.81,82.68c.59.04,1.18.12,1.74.27s1.07.32,1.46.63c7.69,6.1,14.16,13.68,20.22,21.35,17.28,23.36,34.66,47.06,49.05,72.23-.54-.96.22-.47.96.3l3.85,9.14c.52,3.55,0,4.78-1.59,3.7l-1.36.4-42.31-48.11c3.27,11.22,5.34,22.61,6.19,34.17l3.03,29.83c4.07,17.83,17.1,26.38,33.45,16.21,1.19-.52,1.73.07,1.46,1.35,1.43,1.34-1.91,3.98-3.35,2.75-5.26,5.99-13.62,7.54-21.17,8.58-11.21-.05-21.98,1.46-32.33,4.54l-6.06,3.5c-1.42.07-1.7-.4-1.01-1.67,4.47-5.52,9.12-10.89,14.7-15.37-.68-1.97,1.36-2.75,2.8-1.28l2.11-1.21c3.61-.27,7.23-.28,10.87-.02-2.32-1.7-4.11-3.75-5.39-6.15l.42-1.58c-3.52-2.26-5.9-9.56-4.61-13.57-1.64-1.59-3.4-4.41-1.68-6.17l.15-2.16c-2.01.08-2.97-5.28-1.16-6.14l-1.28-1.41c-.61-2.93-.42-5.77.56-8.54l-1.33-.46-.88-8.81-50.08-38.11.16-1.5c-.96-1.37.2-1.04,1.45-.45l45.63,32.24c1.88-.49,3.02-1.05,4.46-1.92.16-12.53-3.1-24.42-10.78-34.32-7.05-9.09-14.81-17-22.5-25.54-.51-.57-.86-2.12-.96-2.9-.63-4.99-1.08-12.74,1.83-14.19,1.04-.52,2.54-.2,3.31.39Z"/>
    <path class="cls-23" d="M96.72,166.62l.22.69c12.04,4.94,24.23,10.25,36.58,15.93,2.64,1.18,5.13,2.48,6.72,4.98l1.16,6.14-.03,3.52c-2.6,1-5.28,1.71-8.04,2.11l7.91.27c.72.56,1.28,1.37,1.69,2.43,1.07,4.63,2.52,9.33,4.61,13.57.87,3.75-4.73,7.66-8,8.96-.93.31-2.06.68-2.8,1.28-.28-.64-1.02-.88-1.84-.93-12.7-.78-29.38-5.37-33.12-17.07-1.07-3.35.04-6.67,3.09-8.32-14.5-3.93-29.3-17.8-30.53-32.05-.22-2.49,1.35-6.52,4.22-6.41l1.72-1.18c4.22.18,11.6,2.41,15.42,4.29l1.04,1.8Z"/>
    <path class="cls-27" d="M73.24,118.38c4.62,3.58,9.33,7.02,14.16,10.3l-.02.71,51.32,39.05.81,9.82c.54,3.23-1.72,5.13-4.93,4.02-12.89-4.46-25.8-9.36-37.86-15.66-5.73-2.31-12.07-4.69-18.17-4.91l1.46-.9c-11.88-8.05-20.5-19.99-24.59-33.53-2.47-8.18-1.81-18.08,4.43-16.89.74.14,1.49.16,1.77-.12l8.15,5.93c1.41,1.03,2.21,1.33,3.46,2.18Z"/>
    <path class="cls-15" d="M183.24,177.46c-.54.27-.99.53-1.25.48-.36-.07-.59-.91-.76-1.16l-8.36-13.06-9.07-13.7-6-8.57c-.97-1.39-1.76-2.71-2.79-4.17l-7.32-10.41-5.7-8.26-8.83-11.64c-6.94-9.15-14.48-17.45-23.35-24.28.45-.04.5-.43.21-.82-4.17-10.82-4.24-34.43,3.44-37.21,2-.73,4.19.28,5.68,1.94,9.93,10.99,21.61,34.5,28.05,49.07l11.96,27.05,24.09,54.76Z"/>
    <path class="cls-4" d="M235.67,207.35l.61,1.96c-1.74,5.95-4.34,11.19-7.8,15.71,8.62,6.46,17.52,4.52,23.66-4.26l1.64.11c-6.32,15.43-15.35,30.28-27.43,41.74l-.6-.36-5.78,4.47c-5.53,3.25-12.13,5.37-18.37,6.75-7,1.55-19.66,3.21-26.6,2.29-.92-.12-1.67-.74-2.36-1.32-1.5-.52-1.27-1.31-.04-2.2,26.24-8.08,36.15-35.53,27.8-60.95-1.6-1.67-1.8-2.94-.62-3.82l1.64-.41c10.05,10.33,25.09,9.46,32.89-3,1.85-.74,2.3.36,1.37,3.3Z"/>
    <path class="cls-19" d="M120.53,282.91l-.8,2.64c-5.63,6.59-10.73,13.6-15.3,21.02.59-.87.65-.67.19.6,1.72,1.03-1.84,5.59-3.6,4.74-1.46-.28-2.66.77-3.6,3.17-2.1,1.11-3.22-.04-3.36-3.46,3.35-24.54,12.38-50.52,27.98-69.77.09.69.5.7.88.39,3.77-2.98,8.02-4.59,12.71-5.64,15.74-3.51,30,1.03,46.99-9.71,1.3,1.13.93,2.43-1.09,3.91-16.38,13.14-32.51,26.55-48.38,40.25-3.8,4.53-8,8.48-12.6,11.84Z"/>
    <path class="cls-18" d="M226.35,262.6c-8.88,8.42-18.52,15.47-29.9,20.7-13.86,6.38-28.62,9.63-43.9,10.05l-16.92.47-1.6,1.35c-10.21.44-20.57,3.45-27.35,11.5l-2.05.5c-.18,0-.93-.38-.75-.73,4.59-8.84,9.88-16.96,16.66-23.54,8.16-7.76,18.57-9.33,29.48-8.37,0,0,7.2-.44,21.59-1.31l1.04,1.19c19.36.36,37.74-1.58,53.74-13.22.26.63.05,1.13-.03,1.4Z"/>
    <path class="cls-8" d="M292.24,169.01c-.29,2.89-5.74,2.34-6.73.32l-1.6.1c-2.26,2.08-10.26.41-13.06-.87-3.57-1.63-8.69-5.3-11.71-7.77l-1.71.83c-8.64-2.34-17.02.93-23.4,6.82l-2.84,1.57c1.41,1.56-2.35,5.52-4.09,5.16-7.96,9.95-22.07,13.54-34.51,13.05l-1.51-1.49c.94-1.43,2.66-1.94,4.12-2.93,7.96-5.38,9.6-18.89,22.76-29.37,17.94-14.28,43.11-9.82,59.7,6.2,3.79,3.65,8.03,6.43,13.41,7.5.69.14,1.1.55,1.18.85Z"/>
    <path class="cls-6" d="M135.62,293.83c5.66,12.31,10.23,24.87,12.14,38.37,1.27,8.99,2.26,27.1-3.29,28.42-4.51,1.07-9.82-7.62-12.49-13.24-1.3-.21-1.89-.59-1.75-1.14-1.49-11.43-3.18-24.04-7.64-34.83-.34-.83-11.4,11.86-11.98,13.35-1.38,1.19-1.96.92-2.24-.86l-1.35-1.04c.03-3-.24-5.96-.82-8.89-3.59,2.31-6.8,5.15-9.62,8.51-2.82.61-2.83.21-2.09-2.39s4.03-7.68,6.51-8.17l3.6-4.74c7.51-9.89,19.02-13.02,31.01-13.35Z"/>
    <path class="cls-1" d="M272.45,173.57c3.95.03,7.4,1.06,10.36,3.1,2.19,1.22,3.17,2.63,2.93,4.23-10,3.53-20.34,16.56-25.22,26.38l-6.75,13.59c-2.74,2.95-5.06,6.33-9.1,8.11-5.74,2.53-12.72,1.03-17.28-3.93,4.1-5.6,5.86-11.74,8.28-17.7-.02-4.88,2.27-10.02,5.32-14.36,2.78-3.96,5.79-7.9,10.21-10.12-1.01-2.22,2.65-4.2,4.78-4.17.06-3.15,5.93-4.21,8.82-4.66-.47-2.8,7.07-2.64,7.65-.47Z"/>
    <path class="cls-22" d="M101.01,311.92c-2.37,3.12-4.32,6.59-6.25,10.54,3.98-3.75,6.95-7.88,12.17-10.57,1.51,4.08,1.19,8.16,1.46,12l1.34.65c.95,10.45,1.46,20.92,1.51,31.4.87,2.39.75,4.09-.36,5.09-.8.19-1.06.83-1.16,1.85-1,10.66-2.64,20.85-7.12,30.55-.71,1.54-2.48,4.87-4.51,3.67-2.19-1.3-3.25-5.16-3.65-7.95-3.68-25.82-3.9-51.96-.4-77.54l1.98,2.97c1.7-1.12,2.28-3,2.1-5.51.87,1.2,1.41,1.9,2.92,1.59l-.05,1.24Z"/>
    <path class="cls-16" d="M131.99,347.38c-.13-.17-.5-.33-.78-.27.5,10.61-1.4,38.77-8.25,37.28-6.81-1.48-10.53-15.5-12.08-23.34l-.94-4.72.13-5-.57-11.63-1.11-15.79c1.23,1.97,2.62-3.17,8.67-9,1.94-1.88,3.42-4.04,6.11-5.63,4.17,11.08,6.61,21.96,7.94,33.28.23,1.93.13,3.22.88,4.82Z"/>
    <path class="cls-5" d="M206.48,201.28c-.93,1.51-1.55,1.19-1.32-.58-3.19.87-7.05-.37-10.18-1.4-1.39,1.43-2.39.71-1.6-1.08-2.09.03-2.85-.3-4.29-2.05-2.38-1.77-3.58-3.73-3.58-5.86,1.31.22.06-1.52.3-2.81.08-.4.9-.9,1.29-.89l3.98.15c7.65,1.19,15.3-.76,22.84-3.44,5.93-2.1,8.98-6.19,13.19-8.13.28.11.55.23.75.42,1.28,1.23-9.74,19.14-12.36,21.44-3.04,2.66-5.32,3.3-9.01,4.23Z"/>
    <path class="cls-20" d="M359.35,181.36c.62.07,1.58.33,2.63,1.44-4.41.67-8.79.44-13.6.01l-43.89-3.93c-6.61-.59-12.84-.07-18.74,2.02-2.49-2.19-4.7-4.48-8.13-5.62l-5.16-1.7c.49-1.4,2.19-1.89,5.11-1.48,1.6-.24,3.13.14,4.59,1.12l.28-.83c22.32,1.6,45.12,3.3,67.41,6.78,3.12.49,6.62,1.09,9.51,2.19Z"/>
    <path class="cls-10" d="M359.35,181.36l-42.86-4.89-34.34-3.26c-5.58-.75,1.38-4.07,3.5-3.38.26.09-1.82.62-1.74-.41.5,0,1.26-.73,2.24-.35,2.14.84,4.14.6,6.09-.07l57.81,9.07,8.18,2.25c.63.17,1.08.6,1.12,1.03Z"/>
    <path class="cls-11" d="M88.83,128.94c-.53-.07-1.12-.1-1.45.45l-6.71-4.98c-2.68-1.98-5.48-3.65-7.42-6.03l15.58,10.56Z"/>
    <path class="cls-12" d="M185.5,190.3c2.45,2.79,4.82,5.63,7.87,7.91,2.72,10.02,0,18.19-6.01,26.38l-1.41-.44c-.28-.52-.59-.61-1.01-.12-7.99,5.9-19.73,6.03-27.12-1.09-5.02-4.83-7.66-11.58-8.34-18.42l-2.74-27.62-2.42-19.58c-.92-7.42-3.44-13.85-6.55-21.23l12.87,14.43,34.86,39.77Z"/>
    <path class="cls-24" d="M193.38,198.21c.54.4.81.88,1.6,1.08.55.17.5.32-.09.46,1.6,1.18,6.75,5.08,5.63,6.88-.19.31-.45.57-.74.82.12,1.43,1.45,2.23,1.97,3.74,1.93,5.56,2.98,11.7,2.76,17.67l-.2,5.44c-.17,4.8-2.48,12.85-4.66,16.59l-4.1,7.04c-.9,1.55-2.78,3.16-4.01,4.36l-3.04,2.96-9.15,5.92-4.4,1.81c-.63.26-2.36-.17-2.32,1.43l-11.52,1.11-4.71.2-5.86.09c-4.5.07-8.77-.77-14.51.59-1.95.46-4.03.38-5.9,1.77l-9.61,4.72,7.34-8.25c13.29-14.65,36.68-30.28,52.78-44.79,1.03-.92,1.82-1.76,1.96-2.96l3.35-2.75c1.42-1.16,2.22-3.24,3.26-5.13l2.01-3.66c1.39-2.54,2.32-6.16,1.92-9.09l-1.1-7.95c-.05-.38.89-.46,1.33-.11Z"/>
    <path class="cls-26" d="M96.72,166.62c12.55,5.05,25.1,9.99,38.2,14.43,1.11.38,2.85-.18,3.61-.41.71-.22.96-1.7.99-2.37l.72,9.95c-9.65-5.32-19.59-9.67-29.79-14.24l-16.53-7.42c1.19-.45,2.05.01,2.81.07Z"/>
    <path class="cls-3" d="M142.93,202.68c-.49-.52-1.31-1.19-2.38-1.22l-30.38-.78c-.02-.28-.22-.56-.27-.66l10.81-.33c6.87-.21,13.47-.77,20.01-2.75.46-.65.6-2.03.69-2.59.2,1.05.07,2.03.37,3.33l1.16,5Z"/>
    <path class="cls-14" d="M139.54,225.21c1.89-2.94,5.89-4.78,8-8.96,1.99,4.03,5.33,6.47,9.49,9.37-6.32-.63-11.78-.6-17.5-.41Z"/>
    <path class="cls-29" d="M251.2,182.86c-4.83,4.21-8.52,9.41-11.82,15.35l-3.7,9.13-.06-3.04c-5.04,8.77-15.39,13.54-25.32,10.09-4.21-1.47-7.12-4.6-10.52-6.93-.31-3.83-5.33-5.04-4.89-7.7,3.52.94,6.95,1.26,10.27.94.34.14.98.55,1.32.58l1.04-.55c8.28-.33,16.04-2.27,23.3-5.8,6.56-4.56,13.06-9.03,19.5-13.4l.89,1.34Z"/>
    <path class="cls-25" d="M255.98,178.69l-4.78,4.17c-1.43-.42-2.26.84-3.39,1.56-3.23,2.05-5.74,4.4-8.69,6.68-9.59,7.4-20.89,11.15-32.65,10.18.15-1.05.86-1.09,1.86-1.44,8.12-2.88,11.48-9.95,15.24-17.53l3.53-7.11c.99-2,2.97-3.44,4.09-5.16,3.48-2.97,8.74-2.94,12.91-1.5,2.25,4.58,5.89,7.78,10.97,8.71l.9,1.46Z"/>
    <path class="cls-17" d="M283.91,169.43c.6.11,1.29-.17,2.2.68-2.05.28-3.44,1.48-5.36,2.33.57.72,1.14.47,1.4.77l-9.7.35-4.93-.24c-.83-.04-2.1.38-2.72.71l-4.71-.44,3.06-4.63c.55-3.4-4.34-5.66-4.01-8.16,4.27,1.4,8.27,3.83,12.24,6.61,4.2,1.06,8.63,2.03,12.53,2.02Z"/>
    <path class="cls-29" d="M205.15,200.7c-.42.56-1.26,1.07-2.19.87l-8.08-1.8.09-.46c3.31.85,6.8,1.43,10.18,1.4Z"/>
    <g>
      <path class="cls-28" d="M259.15,160.8c4.06,3.49,7.31,6.69,3.42,11.73,1.22,0,2.04.06,2.23,1.5l-8.82,4.66c-5.69-.82-10.38-3.86-12.64-9.25-4.3-1.14-8.17-.21-12.14.58,1.48-2.26,3.38-3.79,5.77-5.52,6.56-4.74,14.58-6.2,22.18-3.7Z"/>
      <circle class="cls-7" cx="253.7" cy="166.28" r="1.85"/>
    </g>
  </g>
  <g>
    <path class="cls-13" d="M341.1,276.33c.21-.49.44-.95.69-1.4,2.15-4.15,4.96-7.54,8.24-9.83.22-.17.45-.32.7-.47,2.58-1.65,5.41-2.65,8.42-2.82l.89-.03c.33,0,.65.01.98.03h.01c.23.01.46.03.66.06,1.95.18,3.83.7,5.61,1.53,2.14.98,4.16,2.38,6,4.15.21.19.42.4.62.61,5.87,5.97,9.88,15.63,10.29,26.63.27,7.15-.98,13.84-3.39,19.37-.23.49-.44.98-.7,1.44-2.13,4.51-5.09,8.17-8.57,10.6-.23.18-.47.36-.74.51-1.57,1.02-3.25,1.78-5.01,2.26-.38.11-.77.2-1.15.28-.84.16-1.71.26-2.59.3-.09,0-.19,0-.27,0-.25.02-.51.01-.77,0-.51,0-1.02-.03-1.53-.09-11.82-1.4-21.53-15.43-22.19-32.86-.08-2.25-.01-4.45.19-6.6.02-.34.06-.66.1-1,.55-4.64,1.76-8.93,3.51-12.68Z"/>
    <path class="cls-9" d="M346.33,277.83c.23-.49.44-.95.7-1.39.88-1.7,1.86-3.26,2.97-4.69,0-.02,0-.01,0-.01.21-.29.43-.56.67-.84h0c2.95-3.58,6.55-6.07,10.53-7.07.22-.07.44-.12.65-.16.82-.19,1.67-.31,2.52-.35l.89-.03c.68,0,1.35.04,2.01.13,2.14.98,4.16,2.38,6,4.15.21.19.42.4.62.61,5.87,5.97,9.88,15.63,10.29,26.63.27,7.15-.98,13.84-3.39,19.37-.23.49-.44.98-.7,1.44-2.13,4.51-5.09,8.17-8.57,10.6-.23.18-.47.36-.74.51-1.57,1.02-3.25,1.78-5.01,2.26-.38.11-.77.2-1.15.28-.84.16-1.71.26-2.59.3-.09,0-.19,0-.27,0-.25.02-.51.01-.77,0-.51,0-1.02-.03-1.53-.09-9.32-4.26-16.38-16.59-16.95-31.36-.04-.84-.04-1.68-.02-2.5,0-.33,0-.67.02-.99.19-6.22,1.56-11.96,3.8-16.78Z"/>
    <path class="cls-13" d="M373.29,267.56c.21.19.42.4.62.61-.22,1.52-.32,3.04-.29,4.56.06,3.13.69,6.29,1.3,9.33.22,1.11.44,2.21.63,3.32,1.44,8.12,1.42,15.9-.05,23.09-1.62,7.83-4.97,14.91-9.71,20.51-.38.11-.77.2-1.15.28.13-.15.28-.31.41-.48,4.79-5.54,8.16-12.62,9.77-20.45,1.45-7.11,1.46-14.78.06-22.83-.2-1.12-.43-2.21-.64-3.32-.61-3.07-1.24-6.25-1.31-9.46-.03-1.73.11-3.46.36-5.17Z"/>
    <path class="cls-13" d="M337.58,289.01c1.48,1.83,3.12,3.69,4.95,5.61,1.06,1.15,2.2,2.3,3.4,3.48.77.74,1.54,1.5,2.31,2.24,2.92,2.82,5.94,5.74,8.48,9.02,3.7,4.79,5.74,9.6,6.07,14.3.12,1.96-.18,4.11-1.01,5.9-.25.02-.51.01-.77,0,.87-1.74,1.2-3.89,1.07-5.85-.3-4.56-2.29-9.25-5.91-13.93-2.49-3.24-5.5-6.14-8.41-8.94-.77-.74-1.54-1.5-2.31-2.24-1.03-1.01-2-2.01-2.93-2.98-1.84-1.92-3.51-3.79-5.02-5.6.02-.34.06-.66.1-1Z"/>
    <path class="cls-13" d="M350.02,265.1c.22-.17.45-.32.7-.47-.05,2.03-.06,4.11-.04,6.25h0c.05,4.46.3,9.09.87,13.71.43,3.37,1.03,6.92,2.64,10.07,1.45,2.87,3.76,5.35,6.5,7.01,1.53.93,2.77,1.21,3.79.87,1.77-.58,2.39-2.82,2.59-4.59.8-7.16-1.15-14.36-3.06-21.31-.38-1.44-.77-2.87-1.13-4.3-.65-2.5-1.3-5.43-1.68-8.52-.09-.66-.15-1.33-.19-2.01.23,0,.46.03.66.06.04.61.1,1.2.18,1.79.36,2.99,1.01,5.88,1.69,8.51.36,1.42.75,2.85,1.14,4.28,1.92,7.01,3.9,14.28,3.07,21.58-.22,1.97-.93,4.47-3.05,5.19-1.23.4-2.67.11-4.38-.94-2.89-1.75-5.22-4.28-6.77-7.3-1.65-3.24-2.27-6.87-2.7-10.3-.55-4.37-.79-8.73-.86-12.94h0c-.05-2.27-.03-4.5.02-6.65Z"/>
  </g>
</svg>